<svg width="775" height="479" viewBox="0 0 775 479" fill="none" xmlns="http://www.w3.org/2000/svg">
<g clip-path="url(#clip0_1_150)">
<path d="M433.35 127.18C443.291 127.18 451.35 119.121 451.35 109.18C451.35 99.2389 443.291 91.18 433.35 91.18C423.409 91.18 415.35 99.2389 415.35 109.18C415.35 119.121 423.409 127.18 433.35 127.18Z" fill="#FBF8EF"/>
<path d="M464.88 100.18H90.52C77.0884 100.18 66.2 111.068 66.2 124.5V165.86C66.2 179.292 77.0884 190.18 90.52 190.18H464.88C478.312 190.18 489.2 179.292 489.2 165.86V124.5C489.2 111.068 478.312 100.18 464.88 100.18Z" stroke="#FFF8E6" stroke-width="18.38" stroke-miterlimit="10"/>
<path d="M389.16 8H107.5C95.8081 8 86.33 17.4781 86.33 29.17V75.83C86.33 87.5219 95.8081 97 107.5 97H389.16C400.852 97 410.33 87.5219 410.33 75.83V29.17C410.33 17.4781 400.852 8 389.16 8Z" stroke="#FFF8E6" stroke-width="16" stroke-miterlimit="10"/>
<path d="M480.75 8.5H195.91C184.091 8.5 174.51 18.0811 174.51 29.9V77.1C174.51 88.9189 184.091 98.5 195.91 98.5H480.75C492.569 98.5 502.15 88.9189 502.15 77.1V29.9C502.15 18.0811 492.569 8.5 480.75 8.5Z" fill="#0085AC" stroke="#FFF8E6" stroke-width="16.18" stroke-miterlimit="10"/>
<path d="M151.83 8H31.57C19.4915 8 9.70001 17.7915 9.70001 29.87V76.13C9.70001 88.2085 19.4915 98 31.57 98H151.83C163.908 98 173.7 88.2085 173.7 76.13V29.87C173.7 17.7915 163.908 8 151.83 8Z" fill="#FFD153" stroke="#FFF8E6" stroke-width="16" stroke-miterlimit="10"/>
<path d="M214 81.61V72.37H225.54V63.76H225.39C224.82 64.6085 224.148 65.3842 223.39 66.07C222.56 66.7645 221.616 67.3093 220.6 67.68C219.187 68.189 217.691 68.4265 216.19 68.38C213.67 68.5118 211.167 67.8923 209 66.6C207.216 65.3769 205.898 63.5866 205.26 61.52C204.472 59.0071 204.097 56.383 204.15 53.75C204.15 48.9367 205.033 45.2267 206.8 42.62C208.567 40.0133 211.7 38.7067 216.2 38.7C217.773 38.6464 219.34 38.9223 220.8 39.51C221.843 39.9361 222.791 40.5649 223.59 41.36C224.314 42.1558 224.921 43.0517 225.39 44.02H225.54V38.7H236.12V67.7C236.25 70.5906 235.735 73.4739 234.61 76.14C233.705 78.0746 232.106 79.5985 230.13 80.41C227.768 81.2865 225.259 81.7007 222.74 81.63L214 81.61ZM219.8 60.33C221.154 60.4412 222.508 60.1114 223.66 59.39C224.451 58.7852 224.998 57.9153 225.2 56.94C225.653 54.8375 225.653 52.6625 225.2 50.56C225.001 49.5943 224.453 48.7361 223.66 48.15C222.468 47.5518 221.153 47.2404 219.82 47.2404C218.487 47.2404 217.172 47.5518 215.98 48.15C215.172 48.7291 214.609 49.5883 214.4 50.56C213.96 52.6639 213.96 54.8361 214.4 56.94C214.61 57.9223 215.172 58.7938 215.98 59.39C217.107 60.0902 218.426 60.4189 219.75 60.33H219.8Z" fill="#FBF8EF" stroke="#FFF8E6" stroke-miterlimit="10"/>
<path d="M241.8 67.68V38.68H251.5L252.16 46.94C252.503 45.6051 253.075 44.3398 253.85 43.2C254.759 41.84 255.997 40.7323 257.45 39.98C259.364 39.0328 261.487 38.5856 263.62 38.68H264.28V49.55H263.55C261.459 49.5244 259.369 49.6649 257.3 49.97C255.844 50.1301 254.479 50.7582 253.41 51.76C252.414 52.9874 251.936 54.5556 252.08 56.13V67.68H241.8Z" fill="#FBF8EF" stroke="#FFF8E6" stroke-miterlimit="10"/>
<path d="M280.45 68.38C276.277 68.38 273.397 67.0633 271.81 64.43C270.223 61.7967 269.427 58.2133 269.42 53.68C269.365 51.0086 269.702 48.3437 270.42 45.77C270.987 43.7081 272.199 41.8821 273.88 40.56C275.792 39.229 278.094 38.5744 280.42 38.7C282.084 38.6409 283.744 38.9163 285.3 39.51C286.379 39.9297 287.365 40.5584 288.2 41.36C288.949 42.1284 289.558 43.0219 290 44H290.14V38.7H300.73V67.7H291.73L290.11 63.78H290C290.05 63.78 289.92 64.01 289.63 64.48C289.207 65.0871 288.699 65.6295 288.12 66.09C287.24 66.7917 286.245 67.3363 285.18 67.7C283.656 68.2055 282.055 68.4358 280.45 68.38V68.38ZM284.78 60.38C286.065 60.4897 287.349 60.1582 288.42 59.44C289.178 58.8072 289.686 57.924 289.85 56.95C290.237 54.8544 290.237 52.7056 289.85 50.61C289.68 49.6605 289.172 48.8046 288.42 48.2C287.341 47.5025 286.061 47.1824 284.78 47.29C283.494 47.1832 282.21 47.5183 281.14 48.24C280.392 48.8482 279.886 49.7024 279.71 50.65C279.508 51.6876 279.411 52.7429 279.42 53.8C279.412 54.8703 279.509 55.9387 279.71 56.99C279.882 57.9499 280.389 58.8178 281.14 59.44C282.217 60.1406 283.501 60.4544 284.78 60.33V60.38Z" fill="#FBF8EF" stroke="#FFF8E6" stroke-miterlimit="10"/>
<path d="M327.25 68.38C325.762 68.4278 324.279 68.1902 322.88 67.68C321.877 67.3003 320.944 66.7562 320.12 66.07C319.381 65.3908 318.738 64.6135 318.21 63.76H318.07V81.61H307.49V38.7H316.49L318.07 44H318.21C318.638 43.0252 319.223 42.1267 319.94 41.34C320.731 40.5494 321.668 39.9209 322.7 39.49C324.142 38.8991 325.693 38.6229 327.25 38.68C329.804 38.5414 332.341 39.1756 334.53 40.5C336.333 41.7655 337.651 43.6062 338.27 45.72C339.062 48.3384 339.436 51.0651 339.38 53.8C339.38 58.42 338.483 62 336.69 64.54C334.897 67.08 331.75 68.36 327.25 68.38ZM323.8 60.38C325.154 60.4897 326.508 60.1601 327.66 59.44C328.448 58.8321 328.994 57.9636 329.2 56.99C329.64 54.8861 329.64 52.7139 329.2 50.61C329.001 49.6443 328.453 48.7861 327.66 48.2C326.468 47.6019 325.153 47.2904 323.82 47.2904C322.487 47.2904 321.172 47.6019 319.98 48.2C319.166 48.7736 318.602 49.6352 318.4 50.61C317.96 52.7139 317.96 54.8861 318.4 56.99C318.622 57.9589 319.191 58.8128 320 59.39C321.135 60.0989 322.466 60.4281 323.8 60.33V60.38Z" fill="#FBF8EF" stroke="#FFF8E6" stroke-miterlimit="10"/>
<path d="M345.62 67.68V28.27H356.2V44H356.35C356.774 43.0232 357.359 42.1241 358.08 41.34C358.869 40.5515 359.802 39.9232 360.83 39.49C362.275 38.8995 363.83 38.6233 365.39 38.68C367.223 38.6067 369.043 39.0025 370.68 39.83C371.984 40.538 373.083 41.5715 373.87 42.83C374.629 44.0638 375.177 45.4157 375.49 46.83C375.794 48.1452 375.992 49.4829 376.08 50.83C376.15 52.06 376.19 53.08 376.19 53.83V67.68H366.19V53.75C366.189 52.7444 366.102 51.7407 365.93 50.75C365.78 49.8055 365.327 48.9353 364.64 48.27C363.64 47.4946 362.378 47.1363 361.12 47.27C359.881 47.1437 358.641 47.5021 357.66 48.27C356.977 48.9334 356.537 49.8067 356.41 50.75C356.266 51.7435 356.192 52.7461 356.19 53.75V67.68H345.62Z" fill="#FBF8EF" stroke="#FFF8E6" stroke-miterlimit="10"/>
<path d="M389.27 35.41C387.16 35.41 385.76 34.93 385.08 33.98C384.385 32.9595 384.035 31.7437 384.08 30.51C384.044 29.3009 384.422 28.1158 385.15 27.15C385.85 26.22 387.24 25.75 389.3 25.75C391.36 25.75 392.65 26.22 393.3 27.15C393.988 28.1322 394.339 29.3113 394.3 30.51C394.352 31.7539 394.002 32.9815 393.3 34.01C392.62 34.94 391.27 35.41 389.27 35.41ZM384.12 67.68V38.68H394.41V67.68H384.12Z" fill="#FBF8EF" stroke="#FFF8E6" stroke-miterlimit="10"/>
<path d="M416.89 68.38C414.176 68.4044 411.487 67.8558 409 66.77C406.618 65.7362 404.586 64.0343 403.15 61.87C401.61 59.4232 400.843 56.5691 400.95 53.68C400.958 50.7944 401.745 47.9645 403.23 45.49C404.638 43.2635 406.635 41.4706 409 40.31C411.485 39.0794 414.227 38.4557 417 38.49C419.972 38.3815 422.922 39.0465 425.56 40.42C427.658 41.5329 429.43 43.1735 430.7 45.18C431.792 46.8652 432.391 48.8222 432.43 50.83H423.1C422.607 48.11 420.697 46.75 417.37 46.75C415.163 46.75 413.547 47.3233 412.52 48.47C411.465 49.6756 410.91 51.239 410.97 52.84C410.875 54.7153 411.422 56.5671 412.52 58.09C413.52 59.4 415.21 60.09 417.52 60.09C418.792 60.1174 420.044 59.7696 421.12 59.09C421.685 58.6958 422.157 58.1826 422.502 57.5866C422.848 56.9906 423.059 56.3262 423.12 55.64H432.45C432.423 57.7591 431.825 59.8318 430.72 61.64C429.462 63.6992 427.673 65.3815 425.54 66.51C422.864 67.8637 419.886 68.5076 416.89 68.38V68.38Z" fill="#FBF8EF" stroke="#FFF8E6" stroke-miterlimit="10"/>
<path d="M451.8 68.38H449.63C448.356 68.3518 447.093 68.1396 445.88 67.75C444.451 67.313 443.08 66.7017 441.8 65.93C440.332 65.0702 439.13 63.8213 438.327 62.3213C437.524 60.8213 437.151 59.1285 437.25 57.43H446.65C446.65 57.43 446.65 57.6 446.65 58.02C446.693 58.5131 446.843 58.9908 447.09 59.42C447.426 60.0061 447.909 60.4953 448.49 60.84C449.408 61.337 450.449 61.5624 451.49 61.49C453.157 61.49 454.187 61.19 454.58 60.59C454.883 60.2097 455.086 59.7592 455.17 59.28C455.149 58.9083 455.02 58.5509 454.797 58.2522C454.575 57.9536 454.27 57.7268 453.92 57.6C452.882 57.1082 451.796 56.7229 450.68 56.45C449.36 56.1 447.95 55.7 446.46 55.26C444.994 54.8235 443.576 54.2371 442.23 53.51C440.951 52.8212 439.847 51.8499 439 50.67C438.123 49.3451 437.686 47.7776 437.75 46.19C437.656 44.8954 437.935 43.6011 438.554 42.4599C439.172 41.3188 440.104 40.3784 441.24 39.75C443.946 38.3393 446.97 37.6504 450.02 37.75C454.433 37.75 458.023 38.6933 460.79 40.58C463.55 42.48 464.99 45.33 465.08 49.15H455.83C455.83 47.43 455.28 46.31 454.17 45.8C453.031 45.2801 451.792 45.0172 450.54 45.03C449.566 44.919 448.583 45.1298 447.74 45.63C447.542 45.7836 447.381 45.9787 447.267 46.2016C447.153 46.4245 447.089 46.6698 447.08 46.92C447.085 47.3409 447.209 47.7517 447.437 48.1055C447.666 48.4592 447.989 48.7415 448.37 48.92C449.416 49.4844 450.528 49.9177 451.68 50.21L456 51.44C457.496 51.8446 458.95 52.3938 460.34 53.08C461.624 53.7146 462.751 54.6266 463.64 55.75C464.571 56.967 465.051 58.4687 465 60C465.039 61.2574 464.734 62.5016 464.119 63.5991C463.504 64.6966 462.602 65.6061 461.51 66.23C459.17 67.6633 455.933 68.38 451.8 68.38Z" fill="#FBF8EF" stroke="#FFF8E6" stroke-miterlimit="10"/>
<path d="M398.76 100.18H35.64C21.3137 100.18 9.70001 111.794 9.70001 126.12V164.24C9.70001 178.566 21.3137 190.18 35.64 190.18H398.76C413.086 190.18 424.7 178.566 424.7 164.24V126.12C424.7 111.794 413.086 100.18 398.76 100.18Z" fill="#E84E0F" stroke="#FFF8E6" stroke-width="19.41" stroke-miterlimit="10"/>
<path d="M54.7 162.81C51.9829 162.833 49.2914 162.285 46.8 161.2C44.4368 160.157 42.4235 158.456 41 156.3C39.4565 153.854 38.6864 151 38.79 148.11C38.7764 145.231 39.5399 142.401 41 139.92C42.3971 137.699 44.3798 135.907 46.73 134.74C49.2153 133.509 51.957 132.886 54.73 132.92C57.7011 132.812 60.6496 133.473 63.29 134.84C65.3866 135.959 67.1601 137.598 68.44 139.6C69.528 141.29 70.1236 143.25 70.16 145.26H60.87C60.3833 142.54 58.4733 141.18 55.14 141.18C52.94 141.18 51.3233 141.75 50.29 142.89C49.2396 144.102 48.689 145.668 48.75 147.27C48.652 149.144 49.1952 150.996 50.29 152.52C51.29 153.83 52.98 154.52 55.29 154.52C56.5622 154.547 57.8142 154.2 58.89 153.52C59.4549 153.126 59.9267 152.613 60.2722 152.017C60.6178 151.421 60.8286 150.756 60.89 150.07H70.2C70.1766 152.188 69.5824 154.261 68.48 156.07C67.2219 158.126 65.4324 159.805 63.3 160.93C60.6416 162.283 57.6803 162.93 54.7 162.81V162.81Z" fill="#FBF8EF" stroke="#FFF8E6" stroke-miterlimit="10"/>
<path d="M90.92 162.81C87.8063 162.924 84.7133 162.26 81.92 160.88C79.6327 159.713 77.761 157.869 76.56 155.6C75.3699 153.246 74.7759 150.637 74.83 148C74.7309 145.341 75.3126 142.701 76.52 140.33C77.7467 138.073 79.6298 136.243 81.92 135.08C84.7192 133.718 87.8085 133.059 90.92 133.16C96.16 133.16 100.15 134.51 102.86 137.22C105.57 139.93 106.94 143.52 106.94 148C106.98 150.622 106.386 153.216 105.21 155.56C104.037 157.822 102.207 159.677 99.96 160.88C97.1595 162.281 94.0484 162.945 90.92 162.81V162.81ZM90.92 154.69C92.3326 154.791 93.739 154.422 94.92 153.64C95.7903 152.966 96.4014 152.012 96.65 150.94C97.1966 148.747 97.1966 146.453 96.65 144.26C96.4134 143.214 95.8324 142.277 95 141.6C93.8129 140.836 92.407 140.484 91 140.6C89.5706 140.481 88.1414 140.832 86.93 141.6C86.0505 142.256 85.4251 143.196 85.16 144.26C84.6265 146.455 84.6265 148.745 85.16 150.94C85.4167 152.019 86.0429 152.974 86.93 153.64C88.113 154.409 89.5118 154.777 90.92 154.69V154.69Z" fill="#FBF8EF" stroke="#FFF8E6" stroke-miterlimit="10"/>
<path d="M112.67 162.11V133.11H121.56L123.25 138.29L123.4 138.43C123.872 137.453 124.493 136.556 125.24 135.77C126.078 134.969 127.063 134.337 128.14 133.91C129.675 133.328 131.31 133.056 132.95 133.11C134.793 133.028 136.626 133.413 138.28 134.23C139.552 134.901 140.619 135.903 141.37 137.13C142.076 138.323 142.561 139.634 142.8 141C143.038 142.321 143.171 143.658 143.2 145C143.2 146.29 143.2 147.37 143.2 148.26V162.12H133.2V148.18C133.199 147.174 133.112 146.171 132.94 145.18C132.777 144.216 132.328 143.324 131.65 142.62C131.166 142.213 130.604 141.908 130 141.723C129.395 141.537 128.759 141.475 128.13 141.54C127.51 141.479 126.885 141.543 126.29 141.728C125.696 141.914 125.145 142.217 124.67 142.62C124 143.325 123.564 144.218 123.42 145.18C123.276 146.174 123.202 147.176 123.2 148.18V162.11H112.67Z" fill="#FBF8EF" stroke="#FFF8E6" stroke-miterlimit="10"/>
<path d="M163 162.81H160.84C159.566 162.783 158.303 162.57 157.09 162.18C155.66 161.745 154.289 161.134 153.01 160.36C151.544 159.498 150.344 158.248 149.542 156.749C148.739 155.249 148.365 153.558 148.46 151.86H157.86C157.86 151.86 157.86 152.03 157.86 152.45C157.903 152.943 158.053 153.421 158.3 153.85C158.637 154.433 159.115 154.921 159.69 155.27C160.609 155.764 161.649 155.989 162.69 155.92C164.36 155.92 165.38 155.62 165.78 155.02C166.082 154.64 166.281 154.189 166.36 153.71C166.342 153.338 166.213 152.979 165.991 152.68C165.768 152.381 165.461 152.155 165.11 152.03C164.076 151.534 162.993 151.146 161.88 150.87C160.56 150.52 159.15 150.13 157.66 149.68C156.19 149.253 154.772 148.666 153.43 147.93C152.15 147.248 151.044 146.279 150.2 145.1C149.323 143.775 148.886 142.208 148.95 140.62C148.856 139.325 149.135 138.031 149.754 136.89C150.372 135.749 151.304 134.808 152.44 134.18C155.146 132.769 158.17 132.08 161.22 132.18C165.633 132.18 169.223 133.123 171.99 135.01C174.75 136.9 176.19 139.76 176.28 143.58H167.03C167.03 141.86 166.47 140.74 165.37 140.23C164.231 139.71 162.992 139.447 161.74 139.46C160.767 139.349 159.785 139.556 158.94 140.05C158.743 140.206 158.581 140.403 158.467 140.628C158.353 140.852 158.289 141.098 158.28 141.35C158.283 141.771 158.406 142.183 158.634 142.537C158.863 142.892 159.187 143.173 159.57 143.35C160.613 143.916 161.721 144.353 162.87 144.65L167.21 145.84C168.704 146.243 170.154 146.792 171.54 147.48C172.826 148.112 173.956 149.02 174.85 150.14C175.751 151.365 176.206 152.861 176.14 154.38C176.179 155.637 175.874 156.882 175.259 157.979C174.644 159.077 173.742 159.986 172.65 160.61C170.337 162.083 167.12 162.817 163 162.81Z" fill="#FBF8EF" stroke="#FFF8E6" stroke-miterlimit="10"/>
<path d="M194 162.11C191.509 162.238 189.047 161.535 187 160.11C185.287 158.777 184.43 156.397 184.43 152.97V139.78H180.2V133.13C181.238 133.154 182.272 132.988 183.25 132.64C183.707 132.449 184.119 132.167 184.463 131.811C184.807 131.455 185.075 131.033 185.25 130.57C185.798 129.035 186.035 127.407 185.95 125.78H194V133.13H200.84V139.78H194V154.62H201.06V162.11H194Z" fill="#FBF8EF" stroke="#FFF8E6" stroke-miterlimit="10"/>
<path d="M207.16 162.11V133.11H216.86L217.53 141.37C217.875 140.033 218.447 138.764 219.22 137.62C220.135 136.265 221.372 135.159 222.82 134.4C224.737 133.461 226.858 133.018 228.99 133.11H229.65V144H228.91C226.822 143.975 224.736 144.115 222.67 144.42C221.214 144.575 219.849 145.2 218.78 146.2C217.784 147.431 217.307 149.003 217.45 150.58V162.13L207.16 162.11Z" fill="#FBF8EF" stroke="#FFF8E6" stroke-miterlimit="10"/>
<path d="M245.52 162.81C243.678 162.889 241.845 162.504 240.19 161.69C238.923 161.011 237.86 160.006 237.11 158.78C236.401 157.594 235.913 156.29 235.67 154.93C235.436 153.609 235.303 152.271 235.27 150.93C235.27 149.65 235.27 148.57 235.27 147.68V133.13H245.27V147.76C245.268 148.765 245.352 149.769 245.52 150.76C245.672 151.727 246.139 152.617 246.85 153.29C247.847 154.049 249.092 154.406 250.34 154.29C251.576 154.41 252.81 154.053 253.79 153.29C254.477 152.61 254.918 151.719 255.04 150.76C255.189 149.767 255.262 148.764 255.26 147.76V133.13H265.8V162.13H256.91L255.22 157.58L255.07 157.51C254.598 158.487 253.977 159.384 253.23 160.17C252.395 160.972 251.409 161.6 250.33 162.02C248.796 162.604 247.16 162.873 245.52 162.81V162.81Z" fill="#FBF8EF" stroke="#FFF8E6" stroke-miterlimit="10"/>
<path d="M287 162.81C284.283 162.833 281.591 162.285 279.1 161.2C276.722 160.163 274.694 158.462 273.26 156.3C271.72 153.853 270.953 150.999 271.06 148.11C271.06 145.223 271.848 142.391 273.34 139.92C274.737 137.699 276.72 135.907 279.07 134.74C281.555 133.509 284.297 132.886 287.07 132.92C290.041 132.815 292.989 133.476 295.63 134.84C297.724 135.959 299.494 137.598 300.77 139.6C301.861 141.289 302.46 143.249 302.5 145.26H293.16C292.667 142.54 290.757 141.18 287.43 141.18C285.23 141.18 283.613 141.75 282.58 142.89C281.53 144.102 280.979 145.667 281.04 147.27C280.942 149.144 281.485 150.996 282.58 152.52C283.607 153.853 285.273 154.52 287.58 154.52C288.852 154.547 290.104 154.2 291.18 153.52C291.747 153.128 292.22 152.615 292.566 152.019C292.912 151.422 293.121 150.757 293.18 150.07H302.52C302.493 152.189 301.895 154.262 300.79 156.07C299.535 158.129 297.744 159.808 295.61 160.93C292.949 162.286 289.984 162.933 287 162.81Z" fill="#FBF8EF" stroke="#FFF8E6" stroke-miterlimit="10"/>
<path d="M320.54 162.11C318.049 162.24 315.586 161.536 313.54 160.11C311.833 158.777 310.977 156.397 310.97 152.97V139.78H306.71V133.13C307.731 133.148 308.747 132.982 309.71 132.64C310.166 132.448 310.578 132.165 310.921 131.809C311.265 131.454 311.533 131.032 311.71 130.57C312.253 129.034 312.491 127.407 312.41 125.78H320.49V133.13H327.33V139.78H320.49V154.62H327.49V162.11H320.54Z" fill="#FBF8EF" stroke="#FFF8E6" stroke-miterlimit="10"/>
<path d="M348.68 162.81C345.566 162.924 342.473 162.26 339.68 160.88C337.393 159.713 335.521 157.869 334.32 155.6C333.111 153.241 332.503 150.62 332.55 147.97C332.451 145.311 333.033 142.671 334.24 140.3C335.467 138.043 337.35 136.213 339.64 135.05C342.439 133.688 345.529 133.029 348.64 133.13C353.88 133.13 357.86 134.483 360.58 137.19C363.3 139.897 364.673 143.5 364.7 148C364.744 150.623 364.151 153.217 362.97 155.56C361.797 157.822 359.967 159.677 357.72 160.88C354.92 162.281 351.808 162.945 348.68 162.81V162.81ZM348.68 154.69C350.093 154.789 351.498 154.42 352.68 153.64C353.55 152.966 354.161 152.012 354.41 150.94C354.957 148.747 354.957 146.453 354.41 144.26C354.152 143.203 353.542 142.264 352.68 141.6C351.492 140.837 350.087 140.486 348.68 140.6C347.251 140.481 345.821 140.832 344.61 141.6C343.731 142.256 343.105 143.196 342.84 144.26C342.306 146.455 342.306 148.745 342.84 150.94C343.097 152.019 343.723 152.974 344.61 153.64C345.815 154.426 347.245 154.794 348.68 154.69V154.69Z" fill="#FBF8EF" stroke="#FFF8E6" stroke-miterlimit="10"/>
<path d="M370.43 162.11V133.11H380.13L380.79 141.37C381.144 140.036 381.715 138.769 382.48 137.62C383.399 136.269 384.635 135.163 386.08 134.4C388.001 133.462 390.125 133.019 392.26 133.11H392.92V144H392.18C390.092 143.974 388.006 144.115 385.94 144.42C384.482 144.575 383.113 145.2 382.04 146.2C381.052 147.435 380.579 149.004 380.72 150.58V162.13L370.43 162.11Z" fill="#FBF8EF" stroke="#FFF8E6" stroke-miterlimit="10"/>
<path d="M44.14 35.41C42.04 35.41 40.64 34.93 39.95 33.98C39.2591 32.9577 38.9091 31.7432 38.95 30.51C38.9125 29.3038 39.2824 28.1202 40 27.15C40.71 26.22 42.1 25.75 44.15 25.75C46.2 25.75 47.51 26.22 48.15 27.15C48.8422 28.1303 49.1936 29.3107 49.15 30.51C49.2067 31.7544 48.8556 32.9833 48.15 34.01C47.5 34.94 46.15 35.41 44.14 35.41ZM39 67.68V38.68H49.29V67.68H39Z" fill="#FBF8EF" stroke="#FFF8E6" stroke-miterlimit="10"/>
<path d="M56.34 67.68V38.68H65.23L66.92 43.86L67.07 44C67.5422 43.026 68.1592 42.1292 68.9 41.34C69.7417 40.5415 70.7298 39.9134 71.81 39.49C73.3425 38.8992 74.9785 38.6237 76.62 38.68C78.4809 38.5984 80.3321 38.9906 82 39.82C83.2376 40.5105 84.2721 41.514 85 42.73C85.7089 43.9157 86.1968 45.2201 86.44 46.58C86.6737 47.9014 86.8074 49.2385 86.84 50.58C86.84 51.87 86.84 52.95 86.84 53.84V67.68H76.84V53.75C76.8427 52.7447 76.7591 51.741 76.59 50.75C76.4253 49.7899 75.9758 48.9015 75.3 48.2C74.8154 47.7898 74.2529 47.4818 73.6463 47.2945C73.0397 47.1071 72.4015 47.0444 71.77 47.11C71.2205 47.0273 70.66 47.0568 70.1223 47.1969C69.5845 47.3369 69.0808 47.5845 68.6415 47.9248C68.2021 48.265 67.8364 48.6908 67.5663 49.1764C67.2962 49.662 67.1273 50.1973 67.07 50.75C66.9209 51.743 66.8473 52.7459 66.85 53.75V67.68H56.34Z" fill="#FBF8EF" stroke="#FFF8E6" stroke-miterlimit="10"/>
<path d="M95.5 67.68V45.35H91.9V38.7H95.5V35.55C95.5 32.1033 96.3567 29.7233 98.07 28.41C100.117 26.9866 102.58 26.2832 105.07 26.41H112.13V33.9H105.74V38.7H112.13V45.35H105.74V67.68H95.5Z" fill="#FBF8EF" stroke="#FFF8E6" stroke-miterlimit="10"/>
<path d="M131.65 68.38C128.538 68.4917 125.446 67.8321 122.65 66.46C120.364 65.2864 118.494 63.4401 117.29 61.17C116.081 58.811 115.473 56.1902 115.52 53.54C115.42 50.8842 116.002 48.2471 117.21 45.88C118.434 43.6186 120.317 41.7838 122.61 40.62C125.409 39.2576 128.499 38.5985 131.61 38.7C136.85 38.7 140.84 40.05 143.55 42.76C146.26 45.47 147.63 49.06 147.63 53.54C147.67 56.1624 147.076 58.7558 145.9 61.1C144.727 63.3624 142.897 65.217 140.65 66.42C137.864 67.8246 134.768 68.499 131.65 68.38V68.38ZM131.65 60.26C133.057 60.3755 134.463 60.0241 135.65 59.26C136.518 58.588 137.129 57.6384 137.38 56.57C137.65 55.4806 137.788 54.3625 137.79 53.24C137.793 52.1073 137.655 50.9787 137.38 49.88C137.122 48.8225 136.512 47.8844 135.65 47.22C134.469 46.4384 133.063 46.0692 131.65 46.17C130.215 46.0656 128.785 46.4344 127.58 47.22C126.701 47.8757 126.075 48.8156 125.81 49.88C125.538 50.9791 125.404 52.1078 125.41 53.24C125.409 54.3621 125.543 55.4802 125.81 56.57C126.069 57.6454 126.695 58.5968 127.58 59.26C128.791 60.028 130.221 60.3792 131.65 60.26V60.26Z" fill="#FBF8EF" stroke="#FFF8E6" stroke-miterlimit="10"/>
<path d="M469.14 147.42L424.93 161.79C421.12 150.062 422.124 137.301 427.722 126.314C433.32 115.326 443.053 107.012 454.78 103.2C459.409 101.658 464.261 100.891 469.14 100.93V147.42Z" fill="#E84E0F" stroke="#FFF8E6" stroke-width="10" stroke-linecap="round" stroke-linejoin="round"/>
<path d="M469.14 147.42L496.47 109.81C501.573 113.332 505.919 117.84 509.254 123.067C512.589 128.294 514.844 134.136 515.888 140.248C516.931 146.36 516.741 152.619 515.329 158.656C513.917 164.694 511.312 170.388 507.666 175.403C504.021 180.419 499.409 184.655 494.102 187.861C488.795 191.068 482.901 193.18 476.765 194.074C470.629 194.968 464.377 194.626 458.376 193.068C452.374 191.51 446.745 188.766 441.82 185C433.774 179.335 427.834 171.162 424.93 161.76L469.14 147.42Z" fill="#0085AC" stroke="#FFF8E6" stroke-width="10" stroke-linecap="round" stroke-linejoin="round"/>
<path d="M469.14 147.42V100.93C478.981 100.789 488.591 103.912 496.47 109.81L469.14 147.42Z" fill="#FFC718" stroke="#FFF8E6" stroke-width="10" stroke-linecap="round" stroke-linejoin="round"/>
<path d="M469.14 162.02C477.203 162.02 483.74 155.483 483.74 147.42C483.74 139.357 477.203 132.82 469.14 132.82C461.077 132.82 454.54 139.357 454.54 147.42C454.54 155.483 461.077 162.02 469.14 162.02Z" fill="#FBF8EF" stroke="#FBF8EF" stroke-width="12.98" stroke-linecap="round" stroke-linejoin="round"/>
</g>
<g clip-path="url(#clip1_1_150)">
<path d="M359.81 478.48H69.19C61.4162 478.48 53.7186 476.949 46.5367 473.973C39.3547 470.998 32.8292 466.637 27.3328 461.14C21.8364 455.643 17.4767 449.117 14.5027 441.934C11.5287 434.752 9.99869 427.054 10 419.28V308.19C10 292.492 16.2361 277.437 27.3363 266.336C38.4366 255.236 53.4918 249 69.19 249H253.83C275.687 248.999 297.114 255.072 315.72 266.54L390.86 312.84C399.462 318.139 406.563 325.552 411.489 334.372C416.415 343.193 419.001 353.127 419 363.23V419.28C419.001 427.054 417.471 434.752 414.497 441.934C411.523 449.117 407.164 455.643 401.667 461.14C396.171 466.637 389.645 470.998 382.463 473.973C375.281 476.949 367.584 478.48 359.81 478.48V478.48Z" fill="#1C763F"/>
<path d="M57.19 401.4C55.0225 401.508 52.8708 400.98 51 399.88C49.4592 398.829 48.3288 397.278 47.8 395.49C47.1393 393.296 46.8255 391.011 46.87 388.72C46.87 384.533 47.6167 381.29 49.11 378.99C50.6033 376.69 53.3133 375.543 57.24 375.55C58.6072 375.507 59.9686 375.746 61.24 376.25C62.1663 376.625 63.0117 377.175 63.73 377.87C64.3898 378.56 64.9518 379.337 65.4 380.18H65.53V366.46H74.74V400.79H66.91L65.51 397.38H65.38C64.8774 398.125 64.2751 398.798 63.59 399.38C62.8245 399.975 61.971 400.448 61.06 400.78C59.8192 401.223 58.5072 401.434 57.19 401.4V401.4ZM60.51 394.4C61.6889 394.493 62.8665 394.206 63.87 393.58C64.5655 393.055 65.0455 392.294 65.22 391.44C65.6067 389.61 65.6067 387.72 65.22 385.89C65.047 385.046 64.5657 384.298 63.87 383.79C62.8606 383.181 61.6851 382.904 60.51 383C59.3482 382.913 58.188 383.189 57.19 383.79C56.4802 384.29 55.9869 385.04 55.81 385.89C55.4233 387.72 55.4233 389.61 55.81 391.44C55.9877 392.3 56.4798 393.063 57.19 393.58C58.1837 394.193 59.3456 394.477 60.51 394.39V394.4Z" fill="#FFF8E6"/>
<path d="M89.83 401.4C86.2033 401.4 83.6967 400.253 82.31 397.96C80.9233 395.667 80.23 392.547 80.23 388.6C80.184 386.272 80.4839 383.95 81.12 381.71C81.6127 379.914 82.6632 378.321 84.12 377.16C85.7909 376.01 87.7945 375.444 89.82 375.55C91.2693 375.496 92.7147 375.734 94.07 376.25C95.0093 376.623 95.8682 377.173 96.6 377.87C97.2424 378.546 97.7634 379.327 98.14 380.18H98.26V375.55H107.48V400.79H99.68L98.27 397.38H98.15C98.15 397.38 98.08 397.58 97.83 397.99C97.456 398.515 97.0119 398.986 96.51 399.39C95.7468 400 94.8841 400.473 93.96 400.79C92.6301 401.236 91.2319 401.442 89.83 401.4V401.4ZM93.6 394.4C94.7187 394.49 95.8353 394.201 96.77 393.58C97.4276 393.024 97.864 392.25 98 391.4C98.3333 389.575 98.3333 387.705 98 385.88C97.8526 385.051 97.4082 384.305 96.75 383.78C95.8138 383.182 94.7071 382.908 93.6 383C92.4812 382.91 91.3647 383.199 90.43 383.82C89.7823 384.352 89.3432 385.096 89.19 385.92C89.0136 386.826 88.9265 387.747 88.93 388.67C88.9275 389.6 89.0146 390.527 89.19 391.44C89.3351 392.278 89.7749 393.037 90.43 393.58C91.3659 394.198 92.4824 394.483 93.6 394.39V394.4Z" fill="#FFF8E6"/>
<path d="M123.23 400.79C121.07 400.907 118.932 400.305 117.15 399.08C115.66 397.95 114.91 395.87 114.91 392.86V381.34H111.2V375.55C112.106 375.572 113.007 375.426 113.86 375.12C114.256 374.953 114.613 374.708 114.91 374.398C115.208 374.089 115.439 373.722 115.59 373.32C116.059 371.982 116.262 370.566 116.19 369.15H123.19V375.55H129.19V381.34H123.19V394.27H129.34V400.79H123.23Z" fill="#FFF8E6"/>
<path d="M143.59 401.4C139.963 401.4 137.457 400.253 136.07 397.96C134.683 395.667 133.993 392.547 134 388.6C133.954 386.272 134.254 383.95 134.89 381.71C135.383 379.914 136.433 378.321 137.89 377.16C139.561 376.01 141.565 375.444 143.59 375.55C145.039 375.496 146.485 375.734 147.84 376.25C148.779 376.623 149.638 377.173 150.37 377.87C151.012 378.546 151.533 379.327 151.91 380.18H152V375.55H161.22V400.79H153.41L152 397.38H151.88C151.88 397.38 151.81 397.58 151.56 397.99C151.186 398.515 150.742 398.986 150.24 399.39C149.474 400.002 148.608 400.475 147.68 400.79C146.363 401.233 144.979 401.439 143.59 401.4ZM147.36 394.4C148.479 394.49 149.595 394.201 150.53 393.58C151.193 393.03 151.636 392.26 151.78 391.41C152.113 389.585 152.113 387.715 151.78 385.89C151.633 385.061 151.188 384.315 150.53 383.79C149.589 383.184 148.475 382.906 147.36 383C146.241 382.91 145.125 383.199 144.19 383.82C143.542 384.352 143.103 385.096 142.95 385.92C142.774 386.826 142.687 387.747 142.69 388.67C142.688 389.6 142.775 390.527 142.95 391.44C143.095 392.278 143.535 393.037 144.19 393.58C145.126 394.198 146.242 394.483 147.36 394.39V394.4Z" fill="#FFF8E6"/>
<path d="M64.48 423.29H73.19V424.44L65 448.53H52.64L44.39 424.53V423.32H53L58.89 441.48H59L64.48 423.29Z" fill="#FFF8E6"/>
<path d="M83.68 420.42C81.85 420.42 80.63 420 80.03 419.17C79.4257 418.288 79.1143 417.239 79.14 416.17C79.1119 415.12 79.4397 414.091 80.07 413.25C80.68 412.43 81.89 412.03 83.68 412.03C85.47 412.03 86.6 412.43 87.2 413.25C87.8127 414.098 88.129 415.124 88.1 416.17C88.129 417.241 87.8135 418.292 87.2 419.17C86.6 420 85.43 420.42 83.68 420.42ZM79.2 448.53V423.29H88.2V448.53H79.2Z" fill="#FFF8E6"/>
<path d="M106.21 449.14H104.32C103.213 449.113 102.115 448.928 101.06 448.59C99.8157 448.208 98.6233 447.674 97.51 447C96.3427 446.304 95.364 445.332 94.66 444.17C93.8631 442.783 93.4748 441.198 93.54 439.6H101.73C101.73 439.6 101.73 439.75 101.73 440.11C101.768 440.541 101.901 440.957 102.12 441.33C102.412 441.839 102.828 442.266 103.33 442.57C104.125 442.993 105.021 443.187 105.92 443.13C107.37 443.13 108.27 442.87 108.61 442.35C108.874 442.019 109.049 441.627 109.12 441.21C109.104 440.887 108.993 440.577 108.801 440.317C108.608 440.057 108.344 439.86 108.04 439.75C107.136 439.324 106.191 438.989 105.22 438.75C104.07 438.45 102.84 438.1 101.54 437.75C100.263 437.37 99.0296 436.858 97.86 436.22C96.7443 435.622 95.7799 434.777 95.04 433.75C94.2793 432.596 93.9014 431.231 93.96 429.85C93.8755 428.727 94.1127 427.602 94.644 426.609C95.1753 425.615 95.9787 424.794 96.96 424.24C99.3168 423.021 101.949 422.432 104.6 422.53C107.904 422.386 111.175 423.247 113.98 425C115.177 425.832 116.147 426.95 116.8 428.254C117.454 429.557 117.77 431.003 117.72 432.46H109.73C109.73 430.96 109.25 429.99 108.29 429.54C107.294 429.089 106.213 428.861 105.12 428.87C104.275 428.774 103.422 428.957 102.69 429.39C102.518 429.526 102.377 429.697 102.277 429.892C102.177 430.087 102.12 430.301 102.11 430.52C102.12 430.885 102.23 431.239 102.427 431.546C102.625 431.853 102.902 432.1 103.23 432.26C104.143 432.747 105.11 433.126 106.11 433.39L109.89 434.39C111.192 434.747 112.458 435.226 113.67 435.82C114.789 436.372 115.772 437.164 116.55 438.14C117.328 439.209 117.723 440.509 117.67 441.83C117.712 442.923 117.455 444.006 116.926 444.963C116.398 445.92 115.617 446.714 114.67 447.26C112.617 448.513 109.797 449.14 106.21 449.14Z" fill="#FFF8E6"/>
<path d="M131.1 449.14C129.494 449.202 127.898 448.858 126.46 448.14C125.354 447.555 124.427 446.681 123.78 445.61C123.161 444.58 122.737 443.444 122.53 442.26C122.318 441.112 122.201 439.948 122.18 438.78C122.18 437.66 122.18 436.72 122.18 435.95V423.29H130.89V436C130.89 436.868 130.963 437.734 131.11 438.59C131.245 439.429 131.648 440.201 132.26 440.79C133.116 441.447 134.185 441.761 135.26 441.67C136.336 441.774 137.41 441.458 138.26 440.79C138.857 440.198 139.241 439.424 139.35 438.59C139.477 437.733 139.541 436.867 139.54 436V423.29H148.76V448.53H141L139.52 444.53L139.39 444.46C138.985 445.312 138.448 446.095 137.8 446.78C137.067 447.475 136.208 448.025 135.27 448.4C133.942 448.917 132.525 449.169 131.1 449.14Z" fill="#FFF8E6"/>
<path d="M162.66 449.14C159.033 449.14 156.527 447.99 155.14 445.69C153.753 443.39 153.06 440.27 153.06 436.33C153.015 434.002 153.315 431.68 153.95 429.44C154.443 427.647 155.493 426.056 156.95 424.9C158.619 423.746 160.624 423.179 162.65 423.29C164.099 423.236 165.545 423.474 166.9 423.99C167.841 424.356 168.7 424.903 169.43 425.6C170.075 426.277 170.596 427.063 170.97 427.92H171.09V423.29H180.31V448.53H172.5L171.09 445.11H171C171 445.11 170.93 445.32 170.68 445.72C170.311 446.249 169.867 446.721 169.36 447.12C168.597 447.733 167.735 448.21 166.81 448.53C165.473 448.973 164.068 449.179 162.66 449.14V449.14ZM166.43 442.14C167.549 442.235 168.667 441.946 169.6 441.32C170.261 440.772 170.704 440.006 170.85 439.16C171.019 438.253 171.103 437.332 171.1 436.41C171.106 435.481 171.022 434.553 170.85 433.64C170.705 432.81 170.26 432.063 169.6 431.54C168.661 430.931 167.546 430.649 166.43 430.74C165.31 430.653 164.193 430.945 163.26 431.57C162.612 432.102 162.173 432.846 162.02 433.67C161.844 434.573 161.756 435.49 161.76 436.41C161.758 437.343 161.845 438.274 162.02 439.19C162.167 440.025 162.607 440.78 163.26 441.32C164.197 441.934 165.314 442.216 166.43 442.12V442.14Z" fill="#FFF8E6"/>
<path d="M186 448.53V414.2H194.71V448.53H186Z" fill="#FFF8E6"/>
<path d="M206.05 420.42C204.21 420.42 203 420 202.4 419.17C201.786 418.292 201.471 417.241 201.5 416.17C201.472 415.12 201.8 414.091 202.43 413.25C203.05 412.43 204.26 412.03 206.05 412.03C207.84 412.03 208.97 412.43 209.57 413.25C210.175 414.101 210.488 415.126 210.46 416.17C210.488 417.239 210.177 418.289 209.57 419.17C209 420 207.8 420.42 206.05 420.42ZM201.57 448.53V423.29H210.57V448.53H201.57Z" fill="#FFF8E6"/>
<path d="M216.67 448.53V442.43L230.75 429.43H217.57V423.28H240.93V429.28L227.36 442.33H240.93V448.55L216.67 448.53Z" fill="#FFF8E6"/>
<path d="M255.78 449.14C252.153 449.14 249.647 447.99 248.26 445.69C246.873 443.39 246.18 440.27 246.18 436.33C246.135 434.002 246.435 431.68 247.07 429.44C247.563 427.647 248.613 426.056 250.07 424.9C251.739 423.746 253.744 423.179 255.77 423.29C257.219 423.236 258.664 423.474 260.02 423.99C260.961 424.356 261.82 424.903 262.55 425.6C263.195 426.277 263.716 427.063 264.09 427.92H264.21V423.29H273.43V448.53H265.62L264.21 445.11H264.09C264.09 445.11 264.02 445.32 263.77 445.72C263.401 446.249 262.957 446.721 262.45 447.12C261.684 447.733 260.818 448.21 259.89 448.53C258.566 448.971 257.175 449.177 255.78 449.14ZM259.55 442.14C260.669 442.235 261.787 441.946 262.72 441.32C263.381 440.772 263.824 440.006 263.97 439.16C264.139 438.253 264.223 437.332 264.22 436.41C264.226 435.481 264.142 434.553 263.97 433.64C263.825 432.81 263.38 432.063 262.72 431.54C261.781 430.931 260.666 430.649 259.55 430.74C258.43 430.647 257.311 430.94 256.38 431.57C255.732 432.102 255.293 432.846 255.14 433.67C254.959 434.572 254.872 435.49 254.88 436.41C254.873 437.343 254.96 438.274 255.14 439.19C255.287 440.025 255.727 440.78 256.38 441.32C257.315 441.939 258.433 442.221 259.55 442.12V442.14Z" fill="#FFF8E6"/>
<path d="M289.18 448.53C287.02 448.647 284.882 448.045 283.1 446.82C281.607 445.68 280.86 443.607 280.86 440.6V429.08H277.15V423.29C278.055 423.307 278.956 423.161 279.81 422.86C280.203 422.69 280.559 422.443 280.856 422.134C281.153 421.825 281.386 421.46 281.54 421.06C282.008 419.718 282.212 418.299 282.14 416.88H289.14V423.29H295.14V429.08H289.14V442H295.29V448.53H289.18Z" fill="#FFF8E6"/>
<path d="M306.08 420.42C304.24 420.42 303.03 420 302.43 419.17C301.82 418.291 301.508 417.239 301.54 416.17C301.508 415.121 301.833 414.092 302.46 413.25C303.08 412.43 304.29 412.03 306.08 412.03C307.87 412.03 309 412.43 309.6 413.25C310.213 414.098 310.529 415.124 310.5 416.17C310.529 417.241 310.214 418.292 309.6 419.17C309 420 307.83 420.42 306.08 420.42ZM301.6 448.53V423.29H310.6V448.53H301.6Z" fill="#FFF8E6"/>
<path d="M329.76 449.14C327.058 449.233 324.375 448.656 321.95 447.46C319.959 446.441 318.329 444.835 317.28 442.86C316.226 440.804 315.697 438.52 315.74 436.21C315.655 433.895 316.161 431.596 317.21 429.53C318.278 427.563 319.922 425.969 321.92 424.96C324.357 423.77 327.049 423.197 329.76 423.29C334.32 423.29 337.787 424.467 340.16 426.82C341.361 428.06 342.295 429.533 342.905 431.148C343.516 432.763 343.79 434.485 343.71 436.21C343.745 438.495 343.23 440.755 342.21 442.8C341.186 444.77 339.589 446.384 337.63 447.43C335.194 448.659 332.486 449.247 329.76 449.14V449.14ZM329.76 442.06C331.002 442.156 332.24 441.836 333.28 441.15C334.036 440.563 334.566 439.733 334.78 438.8C335.247 436.888 335.247 434.892 334.78 432.98C334.56 432.058 334.031 431.239 333.28 430.66C332.24 429.974 331.002 429.654 329.76 429.75C328.509 429.658 327.262 429.978 326.21 430.66C325.442 431.23 324.897 432.051 324.67 432.98C324.203 434.892 324.203 436.888 324.67 438.8C324.891 439.74 325.437 440.572 326.21 441.15C327.262 441.832 328.509 442.152 329.76 442.06V442.06Z" fill="#FFF8E6"/>
<path d="M348.7 448.53V423.29H356.45L357.92 427.8L358.05 427.92C358.458 427.067 358.998 426.285 359.65 425.6C360.376 424.903 361.232 424.356 362.17 423.99C363.509 423.478 364.937 423.24 366.37 423.29C367.976 423.229 369.572 423.573 371.01 424.29C372.116 424.875 373.043 425.749 373.69 426.82C374.308 427.851 374.731 428.986 374.94 430.17C375.152 431.318 375.269 432.482 375.29 433.65C375.29 434.77 375.29 435.71 375.29 436.49V448.56H366.58V436.39C366.583 435.512 366.509 434.635 366.36 433.77C366.219 432.934 365.828 432.16 365.24 431.55C364.822 431.185 364.335 430.909 363.807 430.737C363.279 430.565 362.723 430.501 362.17 430.55C361.691 430.477 361.202 430.502 360.733 430.624C360.264 430.745 359.824 430.961 359.441 431.257C359.058 431.553 358.739 431.924 358.503 432.348C358.267 432.771 358.12 433.238 358.07 433.72C357.941 434.587 357.877 435.463 357.88 436.34V448.48L348.7 448.53Z" fill="#FFF8E6"/>
<path d="M273.04 352.34C288.559 352.34 301.14 339.759 301.14 324.24C301.14 308.721 288.559 296.14 273.04 296.14C257.521 296.14 244.94 308.721 244.94 324.24C244.94 339.759 257.521 352.34 273.04 352.34Z" fill="#FFF8E6"/>
<path d="M318.34 399.07C327.988 399.07 335.81 391.248 335.81 381.6C335.81 371.952 327.988 364.13 318.34 364.13C308.692 364.13 300.87 371.952 300.87 381.6C300.87 391.248 308.692 399.07 318.34 399.07Z" fill="#FFF8E6"/>
<path d="M332.59 342.11C337.467 342.11 341.42 338.157 341.42 333.28C341.42 328.403 337.467 324.45 332.59 324.45C327.713 324.45 323.76 328.403 323.76 333.28C323.76 338.157 327.713 342.11 332.59 342.11Z" fill="#FFF8E6"/>
<path d="M232.22 394.69C254.869 394.69 273.23 376.329 273.23 353.68C273.23 331.031 254.869 312.67 232.22 312.67C209.571 312.67 191.21 331.031 191.21 353.68C191.21 376.329 209.571 394.69 232.22 394.69Z" fill="#FFF8E6"/>
</g>
<g clip-path="url(#clip2_1_150)">
<path d="M763.9 428.1H512.45C509.678 428.1 507.02 426.999 505.061 425.039C503.101 423.08 502 420.422 502 417.65V327.37C502 297.302 513.944 268.466 535.205 247.205C556.466 225.944 585.302 214 615.37 214H661C691.064 214.005 719.895 225.952 741.152 247.212C762.408 268.473 774.35 297.306 774.35 327.37V417.65C774.35 419.022 774.08 420.381 773.555 421.649C773.029 422.917 772.26 424.069 771.289 425.039C770.319 426.01 769.167 426.779 767.899 427.305C766.631 427.83 765.272 428.1 763.9 428.1Z" fill="#F1F0ED"/>
<path d="M556.3 398.1L562.3 378.5H570.9L561.55 404.85H551.05L541.7 378.5H550.3L556.3 398.1Z" fill="#333333"/>
<path d="M600 394.32H581.85C581.977 395.44 582.537 396.467 583.41 397.18C584.341 397.933 585.513 398.327 586.71 398.29C587.493 398.338 588.275 398.183 588.98 397.84C589.594 397.437 590.135 396.934 590.58 396.35H599.32C598.599 398.945 596.998 401.208 594.79 402.75C592.424 404.4 589.593 405.251 586.71 405.18C584.346 405.219 582.012 404.65 579.93 403.53C577.943 402.436 576.32 400.785 575.26 398.78C574.106 396.576 573.528 394.117 573.58 391.63C573.523 389.155 574.101 386.707 575.26 384.52C576.326 382.544 577.941 380.919 579.91 379.84C581.985 378.733 584.308 378.172 586.66 378.21C589.055 378.174 591.423 378.72 593.56 379.8C595.597 380.839 597.281 382.457 598.4 384.45C599.629 386.69 600.24 389.216 600.17 391.77C600.183 392.623 600.126 393.476 600 394.32ZM591.79 389.32C591.739 388.737 591.57 388.17 591.293 387.655C591.016 387.139 590.638 386.685 590.18 386.32C589.187 385.532 587.947 385.121 586.68 385.16C585.535 385.144 584.425 385.558 583.57 386.32C582.68 387.093 582.092 388.156 581.91 389.32H591.79Z" fill="#333333"/>
<path d="M625.63 380.6C627.9 382.248 629.481 384.677 630.07 387.42H621.33C620.999 386.681 620.453 386.06 619.762 385.639C619.071 385.218 618.268 385.016 617.46 385.06C616.745 385.023 616.032 385.171 615.391 385.489C614.75 385.808 614.202 386.287 613.8 386.88C612.974 388.343 612.539 389.995 612.539 391.675C612.539 393.355 612.974 395.007 613.8 396.47C614.202 397.063 614.75 397.542 615.391 397.861C616.032 398.179 616.745 398.327 617.46 398.29C618.279 398.33 619.094 398.15 619.82 397.77C620.484 397.304 621.006 396.664 621.33 395.92H630.07C629.425 398.636 627.833 401.033 625.58 402.68C623.218 404.377 620.367 405.255 617.46 405.18C615.096 405.219 612.762 404.65 610.68 403.53C608.696 402.443 607.07 400.803 606 398.81C604.852 396.608 604.278 394.153 604.33 391.67C604.276 389.2 604.851 386.757 606 384.57C607.074 382.585 608.699 380.952 610.68 379.87C613.016 378.666 615.628 378.1 618.253 378.228C620.878 378.356 623.422 379.174 625.63 380.6V380.6Z" fill="#333333"/>
<path d="M649.57 398V404.85H645.46C642.5 404.85 640.21 404.183 638.59 402.85C636.97 401.517 636.16 399.273 636.16 396.12V385.12H633.7V378.42H636.16V371.99H644.23V378.42H649.52V385.12H644.23V396.12C644.209 396.38 644.25 396.642 644.349 396.883C644.448 397.125 644.602 397.339 644.8 397.51C645.365 397.859 646.028 398.017 646.69 397.96L649.57 398Z" fill="#333333"/>
<path d="M674.81 379.84C676.882 380.901 678.615 382.522 679.81 384.52C681.067 386.675 681.703 389.136 681.65 391.63C681.701 394.128 681.072 396.592 679.83 398.76C678.659 400.771 676.948 402.413 674.89 403.5C672.755 404.635 670.368 405.213 667.95 405.18C665.513 405.21 663.108 404.633 660.95 403.5C658.871 402.421 657.138 400.778 655.95 398.76C654.689 396.599 654.049 394.132 654.1 391.63C654.045 389.134 654.685 386.672 655.95 384.52C657.141 382.519 658.875 380.897 660.95 379.84C663.106 378.768 665.482 378.21 667.89 378.21C670.298 378.21 672.674 378.768 674.83 379.84H674.81ZM664 386.79C662.933 388.203 662.361 389.928 662.37 391.698C662.379 393.469 662.969 395.188 664.05 396.59C664.555 397.129 665.165 397.558 665.843 397.851C666.521 398.143 667.252 398.293 667.99 398.29C668.719 398.297 669.441 398.149 670.108 397.856C670.775 397.563 671.372 397.132 671.86 396.59C673.014 395.221 673.591 393.457 673.47 391.67C673.533 390.788 673.419 389.902 673.136 389.064C672.853 388.226 672.405 387.453 671.82 386.79C671.316 386.259 670.71 385.837 670.038 385.548C669.366 385.259 668.642 385.11 667.91 385.11C667.178 385.11 666.454 385.259 665.782 385.548C665.11 385.837 664.504 386.259 664 386.79V386.79Z" fill="#333333"/>
<path d="M699.07 379.61C700.312 378.694 701.817 378.203 703.36 378.21V386.43H701.36C699.849 386.314 698.351 386.787 697.18 387.75C696.253 388.637 695.79 390.18 695.79 392.38V404.85H687.71V378.5H695.79V383.41C696.579 381.909 697.701 380.61 699.07 379.61V379.61Z" fill="#333333"/>
<path d="M726.08 380.53C727.087 381.253 727.91 382.203 728.484 383.302C729.057 384.402 729.364 385.62 729.38 386.86H721.12C721.122 386.496 721.037 386.137 720.874 385.812C720.711 385.487 720.473 385.206 720.18 384.99C719.435 384.615 718.603 384.446 717.77 384.5C716.96 384.453 716.153 384.622 715.43 384.99C715.172 385.13 714.958 385.339 714.812 385.593C714.665 385.847 714.592 386.137 714.6 386.43C714.602 386.789 714.722 387.138 714.94 387.423C715.158 387.708 715.464 387.914 715.81 388.01C717.093 388.48 718.41 388.851 719.75 389.12C721.422 389.451 723.072 389.885 724.69 390.42C725.979 390.871 727.137 391.633 728.06 392.64C729.055 393.798 729.563 395.296 729.48 396.82C729.502 398.39 728.994 399.923 728.04 401.17C727 402.511 725.618 403.547 724.04 404.17C722.251 404.899 720.332 405.26 718.4 405.23C715.529 405.345 712.692 404.577 710.27 403.03C709.211 402.307 708.341 401.34 707.733 400.211C707.126 399.081 706.799 397.822 706.78 396.54H715.04C715.066 396.9 715.169 397.251 715.342 397.568C715.514 397.885 715.752 398.162 716.04 398.38C716.757 398.798 717.581 398.996 718.41 398.95C719.237 398.984 720.053 398.752 720.74 398.29C721.016 398.12 721.245 397.884 721.406 397.603C721.567 397.321 721.654 397.004 721.66 396.68C721.654 396.303 721.528 395.937 721.299 395.637C721.071 395.336 720.752 395.117 720.39 395.01C719.095 394.513 717.756 394.141 716.39 393.9C714.735 393.577 713.101 393.15 711.5 392.62C710.236 392.188 709.099 391.449 708.19 390.47C707.22 389.371 706.721 387.934 706.8 386.47C706.786 384.991 707.241 383.545 708.1 382.34C709.079 380.993 710.422 379.953 711.97 379.34C713.943 378.551 716.056 378.173 718.18 378.23C720.995 378.108 723.771 378.916 726.08 380.53Z" fill="#333333"/>
<path d="M543.72 336.79C543.976 311.907 554.04 288.131 571.726 270.626C589.412 253.121 613.291 243.302 638.175 243.302C663.059 243.302 686.938 253.121 704.624 270.626C722.31 288.131 732.374 311.907 732.63 336.79" fill="#FFE6B6"/>
<path d="M543.72 336.79C543.976 311.907 554.04 288.131 571.726 270.626C589.412 253.121 613.291 243.302 638.175 243.302C663.059 243.302 686.938 253.121 704.624 270.626C722.31 288.131 732.374 311.907 732.63 336.79" stroke="#FFB01D" stroke-width="6.3" stroke-miterlimit="10"/>
<path d="M638.17 263.89L676.39 316.41C677.62 318.101 678.313 320.122 678.381 322.212C678.449 324.301 677.887 326.363 676.77 328.13L660.2 354.41C659.257 355.902 657.952 357.13 656.406 357.982C654.861 358.833 653.125 359.28 651.36 359.28H638.17" fill="#333333"/>
<path d="M638.17 263.89L600 316.41C598.771 318.101 598.078 320.121 598.008 322.21C597.939 324.299 598.497 326.361 599.61 328.13L616.19 354.41C617.132 355.902 618.437 357.131 619.983 357.983C621.529 358.835 623.265 359.281 625.03 359.28H638.21" fill="#333333"/>
<path d="M633.45 311.6L638.17 259.65L642.9 311.6H633.45Z" fill="#FFE6B6"/>
<path d="M638.17 254.93C645.123 254.93 650.76 249.293 650.76 242.34C650.76 235.387 645.123 229.75 638.17 229.75C631.217 229.75 625.58 235.387 625.58 242.34C625.58 249.293 631.217 254.93 638.17 254.93Z" fill="#FFE6B6" stroke="#FFB01D" stroke-width="6.3" stroke-miterlimit="10"/>
<path d="M543.72 349.38C550.673 349.38 556.31 343.743 556.31 336.79C556.31 329.837 550.673 324.2 543.72 324.2C536.767 324.2 531.13 329.837 531.13 336.79C531.13 343.743 536.767 349.38 543.72 349.38Z" fill="#FFB01D"/>
<path d="M732.63 349.38C739.583 349.38 745.22 343.743 745.22 336.79C745.22 329.837 739.583 324.2 732.63 324.2C725.677 324.2 720.04 329.837 720.04 336.79C720.04 343.743 725.677 349.38 732.63 349.38Z" fill="#FFB01D"/>
<path d="M638.17 324.19C645.123 324.19 650.76 318.553 650.76 311.6C650.76 304.647 645.123 299.01 638.17 299.01C631.217 299.01 625.58 304.647 625.58 311.6C625.58 318.553 631.217 324.19 638.17 324.19Z" fill="#FFE6B6"/>
</g>
<defs>
<clipPath id="clip0_1_150">
<rect width="520.64" height="199.88" fill="white"/>
</clipPath>
<clipPath id="clip1_1_150">
<rect width="409" height="229.48" fill="white" transform="translate(10 249)"/>
</clipPath>
<clipPath id="clip2_1_150">
<rect width="272.35" height="215.64" fill="white" transform="translate(502 214)"/>
</clipPath>
</defs>
</svg>
