<svg width="632" height="603" viewBox="0 0 632 603" fill="none" xmlns="http://www.w3.org/2000/svg">
<g clip-path="url(#clip0_1_194)">
<path d="M162.5 319.611C249.27 319.611 319.611 249.27 319.611 162.5C319.611 75.7299 249.27 5.38892 162.5 5.38892C75.7299 5.38892 5.38892 75.7299 5.38892 162.5C5.38892 249.27 75.7299 319.611 162.5 319.611Z" fill="white"/>
<path d="M154.04 186.42H81.58V258.88H154.04V186.42Z" fill="#FF0000"/>
<path d="M163.372 175.532C184.114 175.532 200.929 158.717 200.929 137.975C200.929 117.233 184.114 100.418 163.372 100.418C142.63 100.418 125.815 117.233 125.815 137.975C125.815 158.717 142.63 175.532 163.372 175.532Z" fill="#FFDE17"/>
<path d="M214.394 168.619L237.269 208.243L260.145 247.866H214.394H168.635L191.511 208.243L214.394 168.619Z" fill="#21409B"/>
<path d="M162.861 0C73.2609 0 0.361328 72.8995 0.361328 162.5C0.361328 252.1 73.2609 325 162.861 325C252.462 325 325.361 252.1 325.361 162.5C325.361 72.8995 252.462 0 162.861 0ZM162.861 314.222C79.1997 314.222 11.1391 246.162 11.1391 162.5C11.1391 78.8383 79.1997 10.7778 162.861 10.7778C246.523 10.7778 314.583 78.8383 314.583 162.5C314.583 246.162 246.523 314.222 162.861 314.222Z" fill="black"/>
<path d="M36.599 144.236L52.4908 145.021C50.8687 145.975 49.5168 147.327 48.563 148.949C47.5811 150.693 47.0417 152.651 46.9919 154.652C46.8264 157.135 47.3453 159.616 48.4923 161.824C49.6146 163.94 51.3252 165.686 53.4177 166.852C55.731 168.132 58.3166 168.84 60.9591 168.918C63.6482 169.108 66.3435 168.644 68.8146 167.567C71.0341 166.596 72.9288 165.009 74.2742 162.995C75.6452 160.886 76.4089 158.44 76.4817 155.925C76.6054 153.939 76.2385 151.954 75.4133 150.143C74.6402 148.46 73.4338 147.012 71.9176 145.948L76.5523 146.176L76.8901 139.169L36.9211 137.229L36.599 144.236ZM53.0957 153.246C53.1046 152.147 53.3482 151.063 53.8102 150.066C54.2721 149.069 54.9418 148.182 55.7744 147.464C57.5803 145.988 59.8926 145.277 62.216 145.485C64.5493 145.501 66.7833 146.432 68.4376 148.077C69.2083 148.867 69.8006 149.813 70.1747 150.851C70.5487 151.889 70.6957 152.995 70.6057 154.095C70.5913 155.195 70.3388 156.28 69.8656 157.274C69.3923 158.268 68.7095 159.148 67.8641 159.853C66.0214 161.263 63.7385 161.976 61.4204 161.864C59.1023 161.752 56.8989 160.822 55.201 159.24C54.4373 158.452 53.8515 157.509 53.4829 156.475C53.1143 155.441 52.9716 154.34 53.0642 153.246H53.0957Z" fill="black"/>
<path d="M78.9483 110.818C79.4984 112.15 79.7659 113.581 79.7339 115.021C79.7093 116.473 79.3996 117.907 78.8226 119.239C78.128 121.05 76.8031 122.55 75.0915 123.462C73.3798 124.374 71.3964 124.637 69.506 124.204L77.9585 104.644C77.5422 104.424 76.9059 104.125 76.0496 103.756C71.6872 101.871 67.8432 101.473 64.5177 102.562C61.1922 103.651 58.6182 106.309 56.7957 110.536C55.6986 112.953 55.2467 115.613 55.4838 118.258C55.7241 120.749 56.6666 123.122 58.2018 125.1C59.8947 127.159 62.0539 128.786 64.5006 129.844C66.9472 130.903 69.611 131.364 72.2711 131.188C74.7537 130.956 77.1149 130.006 79.0662 128.454C81.1751 126.746 82.8181 124.533 83.8423 122.02C84.8138 119.872 85.3479 117.551 85.4135 115.194C85.4579 113.03 85.0205 110.883 84.133 108.909L78.9483 110.818ZM61.4854 118.116C60.9574 116.285 61.0842 114.327 61.8441 112.579C62.604 110.831 63.9495 109.403 65.6489 108.54C66.5236 108.183 67.4615 108.005 68.4063 108.019C69.3512 108.032 70.2836 108.236 71.1478 108.619L65.154 122.492C63.4478 121.518 62.1465 119.966 61.4854 118.116V118.116Z" fill="black"/>
<path d="M98.7679 85.5234C97.5703 84.3764 96.0076 83.6868 94.3531 83.5752C92.9076 83.5074 91.4662 83.7763 90.1425 84.3608C88.5479 85.1084 87.0048 85.9613 85.5234 86.9139C84.2931 87.7647 82.9766 88.4835 81.5956 89.0584C81.1992 89.2381 80.7593 89.2996 80.3287 89.2355C79.8982 89.1714 79.4952 88.9844 79.1683 88.6971C78.8579 88.4637 78.6195 88.1475 78.4806 87.7849C78.3417 87.4223 78.3077 87.0278 78.3827 86.6468C78.6072 85.6881 79.0877 84.8084 79.7732 84.1016C80.7098 83.0561 81.8013 82.1606 83.0096 81.4464C84.3667 80.6175 85.8136 79.9455 87.3223 79.4432L85.1621 74.2036C83.4062 74.6885 81.7365 75.4438 80.2131 76.4424C78.6037 77.4663 77.151 78.7178 75.9004 80.1581C74.0038 82.181 72.8037 84.7574 72.4753 87.5109C72.364 88.7743 72.5751 90.0454 73.089 91.205C73.6028 92.3645 74.4026 93.3747 75.4133 94.141C76.564 95.2487 78.0631 95.9233 79.6553 96.0499C81.0305 96.1265 82.4041 95.8734 83.6617 95.3114C85.1817 94.5889 86.6514 93.7648 88.0608 92.8448C89.3607 91.9793 90.742 91.2426 92.1849 90.6452C92.6183 90.4681 93.0931 90.4184 93.5537 90.5019C94.0143 90.5854 94.4415 90.7986 94.7851 91.1166C95.1094 91.3725 95.355 91.7145 95.494 92.1035C95.6329 92.4925 95.6595 92.9127 95.5707 93.3161C95.3154 94.363 94.7899 95.3246 94.0467 96.1049C92.877 97.4049 91.4992 98.5014 89.9697 99.3492C88.4234 100.254 86.7204 100.859 84.95 101.132L87.0553 106.184C89.1138 105.886 91.0896 105.169 92.8605 104.078C94.7697 102.95 96.4834 101.52 97.9352 99.8441C99.9144 97.7437 101.186 95.0764 101.572 92.2164C101.717 90.9539 101.536 89.6754 101.045 88.5034C100.554 87.3314 99.7696 86.3053 98.7679 85.5234V85.5234Z" fill="black"/>
<path d="M89.3412 60.8256C89.8665 60.9069 90.4028 60.8835 90.919 60.7567C91.4352 60.63 91.9213 60.4023 92.3492 60.0869C92.7771 59.7714 93.1383 59.3745 93.4121 58.9188C93.6859 58.4632 93.8669 57.9578 93.9446 57.432C94.0133 56.8906 93.9737 56.3409 93.828 55.8149C93.6824 55.289 93.4336 54.7972 93.0962 54.3683C92.7818 53.9156 92.3814 53.5293 91.9177 53.2314C91.4541 52.9335 90.9362 52.7299 90.3938 52.6322C89.3334 52.4722 88.2529 52.7398 87.3897 53.3762C86.5265 54.0125 85.9513 54.9655 85.7905 56.0258C85.7207 56.5818 85.7626 57.1461 85.9136 57.6856C86.0647 58.2252 86.322 58.7292 86.6703 59.168C87.3087 60.0496 88.2679 60.6449 89.3412 60.8256Z" fill="black"/>
<path d="M97.6212 61.2366L91.9741 65.3985L109.102 88.6381L114.749 84.4762L97.6212 61.2366Z" fill="black"/>
<path d="M134.259 43.6297L127.723 46.1749L129.295 50.197C127.9 49.2199 126.276 48.6192 124.581 48.4531C122.729 48.298 120.866 48.5833 119.145 49.2857C116.943 50.0914 115.003 51.4851 113.536 53.3156C112.143 55.0866 111.282 57.2171 111.054 59.4587C110.821 61.927 111.191 64.415 112.13 66.7094C112.995 69.0719 114.415 71.1921 116.27 72.8917C117.951 74.4212 120.033 75.4402 122.272 75.8297C124.592 76.2063 126.97 75.9345 129.145 75.0441C130.896 74.4075 132.473 73.3689 133.749 72.0119C134.907 70.7401 135.702 69.1799 136.05 67.4949L137.284 70.6371C137.699 71.5717 137.9 72.5873 137.871 73.6095C137.842 74.6318 137.585 75.6346 137.119 76.5445C136 78.4829 134.208 79.9423 132.083 80.6451C129.05 81.8231 125.715 81.9776 122.586 81.085L121.8 86.8274C126.036 87.8644 130.488 87.5709 134.55 85.9869C137.13 85.0512 139.465 83.5417 141.376 81.5721C143.049 79.8416 144.172 77.655 144.605 75.2876C145.015 72.8107 144.721 70.2685 143.757 67.9505L134.259 43.6297ZM132.83 65.2011C131.991 67.0909 130.441 68.5737 128.516 69.3281C126.591 70.0826 124.446 70.0476 122.547 69.231C120.627 68.1939 119.137 66.5091 118.343 64.4764C117.549 62.4437 117.502 60.1951 118.21 58.1311C118.619 57.1869 119.211 56.3331 119.951 55.6187C120.691 54.9044 121.566 54.3437 122.524 53.969C123.482 53.5944 124.505 53.4132 125.534 53.4359C126.562 53.4585 127.576 53.6847 128.517 54.1012C130.475 55.1012 131.962 56.8306 132.657 58.9167C133.524 60.9104 133.586 63.1627 132.83 65.2011Z" fill="black"/>
<path d="M174.731 43.1584C172.793 41.1945 170.175 40.2388 166.876 40.2911C161.947 40.4482 158.525 42.3938 156.608 46.1278L156.522 40.731L149.491 40.8489L149.963 69.7102L156.978 69.5923L156.742 55.4052C156.619 53.2449 157.312 51.1173 158.682 49.4429C159.36 48.6519 160.205 48.0207 161.156 47.5943C162.106 47.1678 163.139 46.9568 164.181 46.9762C165.039 46.9176 165.901 47.0359 166.711 47.3237C167.522 47.6116 168.265 48.0628 168.894 48.6494C169.498 49.2831 169.968 50.032 170.275 50.8512C170.583 51.6705 170.723 52.5434 170.685 53.4178L170.945 69.3803L178.015 69.2703L177.724 51.2496C177.672 47.8194 176.674 45.1223 174.731 43.1584Z" fill="black"/>
<path d="M232.446 65.5153C231.844 62.8183 230.123 60.6213 227.285 58.9245C223.017 56.4422 219.089 56.2824 215.501 58.4453L218.274 53.8184L212.265 50.2127L197.402 74.9577L203.42 78.5634L210.725 66.403C211.763 64.5044 213.471 63.0617 215.517 62.3574C216.508 62.042 217.555 61.9488 218.586 62.0846C219.617 62.2204 220.605 62.5817 221.48 63.1429C222.246 63.546 222.92 64.1029 223.461 64.7788C224.001 65.4546 224.397 66.2349 224.622 67.0707C224.801 67.9238 224.808 68.8043 224.64 69.6599C224.473 70.5154 224.135 71.3286 223.648 72.0512L215.423 85.7434L221.48 89.3805L230.718 73.9522C232.477 71.0195 233.053 68.2072 232.446 65.5153Z" fill="black"/>
<path d="M244.905 104.173C243.473 104.037 242.085 103.606 240.828 102.908C239.554 102.205 238.433 101.258 237.528 100.119C236.257 98.6544 235.556 96.7798 235.556 94.8401C235.556 92.9004 236.257 91.0259 237.528 89.5612L250.82 106.215C251.205 105.956 251.77 105.532 252.501 104.95C256.209 101.991 258.367 98.7836 258.974 95.3272C259.582 91.8707 258.448 88.3462 255.573 84.7536C253.954 82.6507 251.819 81.0026 249.375 79.9696C247.058 79.0184 244.519 78.7459 242.053 79.184C239.445 79.7056 236.998 80.8414 234.916 82.4971C232.834 84.1529 231.177 86.2809 230.081 88.7049C229.116 91.004 228.843 93.535 229.296 95.987C229.809 98.6529 230.99 101.145 232.729 103.23C234.172 105.092 235.975 106.644 238.031 107.794C239.918 108.85 242.017 109.472 244.174 109.616L244.905 104.173ZM246.68 85.3192C248.54 85.7175 250.203 86.749 251.387 88.2377C252.57 89.7263 253.2 91.5796 253.169 93.4811C253.07 94.4185 252.785 95.3267 252.331 96.1523C251.876 96.9779 251.261 97.7043 250.521 98.2887L241.095 86.5054C242.752 85.4634 244.727 85.0457 246.664 85.327L246.68 85.3192Z" fill="black"/>
<path d="M265.031 118.98C267.157 120.028 268.707 121.965 269.681 124.793L275.966 122.201C275.191 120.299 273.928 118.635 272.305 117.378C270.705 116.187 268.796 115.483 266.806 115.351L271.944 113.23L269.265 106.749L242.556 117.747L245.235 124.236L258.094 118.917C259.182 118.409 260.369 118.151 261.57 118.162C262.77 118.173 263.953 118.452 265.031 118.98V118.98Z" fill="black"/>
<path d="M291.865 153.741L276.005 155.006C277.489 153.857 278.655 152.348 279.391 150.622C280.124 148.764 280.394 146.756 280.176 144.77C280.034 142.289 279.22 139.894 277.82 137.841C276.446 135.884 274.537 134.365 272.321 133.466C269.863 132.489 267.206 132.117 264.575 132.382C261.896 132.547 259.295 133.356 256.994 134.738C254.921 135.989 253.245 137.804 252.163 139.97C251.071 142.249 250.628 144.785 250.883 147.3C250.999 149.266 251.587 151.177 252.595 152.869C253.578 154.441 254.96 155.724 256.602 156.585L251.975 156.954L252.533 163.945L292.447 160.756L291.865 153.741ZM272.407 152.956C270.75 154.573 268.579 155.56 266.27 155.745C263.962 155.93 261.661 155.302 259.767 153.969C258.914 153.284 258.215 152.425 257.716 151.451C257.218 150.476 256.932 149.406 256.877 148.313C256.752 147.22 256.864 146.114 257.206 145.069C257.548 144.024 258.11 143.064 258.856 142.256C260.503 140.621 262.677 139.621 264.991 139.436C267.304 139.25 269.609 139.891 271.496 141.243C272.337 141.951 273.029 142.819 273.532 143.797C274.035 144.774 274.34 145.842 274.427 146.938C274.515 148.034 274.384 149.136 274.043 150.181C273.702 151.226 273.156 152.193 272.438 153.026L272.407 152.956Z" fill="black"/>
<path d="M162.861 18.3192C83.2689 18.3192 18.5706 83.0489 18.5706 162.61C18.5706 242.171 83.2689 306.901 162.861 306.901C242.454 306.901 307.152 242.171 307.152 162.61C307.152 83.0489 242.422 18.3192 162.861 18.3192ZM162.861 300.436C86.8668 300.436 25.0357 238.605 25.0357 162.61C25.0357 86.6153 86.8668 24.7843 162.861 24.7843C238.856 24.7843 300.687 86.6153 300.687 162.61C300.687 238.605 238.856 300.436 162.861 300.436Z" fill="black"/>
</g>
<g clip-path="url(#clip1_1_194)">
<path d="M306.68 601.68C297.53 603.9 287 596.91 282.99 586.51C256.07 515.66 229.54 447.27 214.41 384.68C212.19 375.52 219.18 365 229.58 360.99C300.44 334.07 368.82 307.54 431.42 292.41C440.57 290.19 451.1 297.18 455.11 307.58C482.03 378.44 508.56 446.82 523.69 509.42C525.91 518.57 518.92 529.1 508.52 533.11C437.65 560.02 369.27 586.56 306.68 601.68Z" fill="#FFD153"/>
<path d="M386.12 433.72L378.35 429.55L371.53 425.39C371.45 425.34 371.37 425.3 371.28 425.25C371.08 425.14 370.8 425.01 370.5 424.88L404.83 361.29L420.63 369.79L386.12 433.72ZM467.22 495.83C469.83 497.23 470.71 498.23 471.01 498.7C471.14 498.91 471.26 499.09 470.81 499.93C470.54 500.44 470.28 500.71 470.16 500.75C470.04 500.79 468.86 501.05 465.41 499.2C465.31 499.15 465.22 499.1 465.12 499.05L371.47 456.04L353.27 446.25C353.26 446.25 353.25 446.24 353.24 446.24C349.73 443.21 345.17 438.85 341.22 434.67L344.7 428.19C351.27 429.55 358.47 431.46 362.87 432.96L373.18 438.5L466.97 495.68C467.06 495.74 467.14 495.78 467.22 495.83ZM368.72 466.31L336.1 526.78L320.37 518.15L352.49 458.62C352.72 458.76 352.94 458.89 353.14 459C353.24 459.05 353.33 459.1 353.43 459.15L366.89 465.33L368.72 466.31ZM324.75 547.81L308.96 539.31L315.47 527.24L331.2 535.86L324.75 547.81ZM290.85 425.38C284.9 422.18 274.22 405.59 266.83 392.44C281.87 391.36 301.6 391.13 307.55 394.32C311.7 396.55 314.72 400.26 316.08 404.77C317.44 409.28 316.95 414.05 314.72 418.2C312.49 422.35 308.78 425.37 304.27 426.73C299.76 428.09 295 427.62 290.85 425.38ZM423.22 359.43L412.56 353.7L424.54 345.31L423.22 359.43ZM432.25 369.98C432.35 369.78 432.44 369.57 432.51 369.35C432.54 369.26 432.58 369.18 432.6 369.09C432.67 368.84 432.72 368.58 432.75 368.32C432.76 368.27 432.77 368.23 432.77 368.18C432.77 368.17 432.78 368.17 432.77 368.16L435.87 335.14C436.06 333.13 435.06 331.2 433.32 330.19C431.57 329.18 429.41 329.27 427.75 330.43L399.76 350.06C399.72 350.09 399.68 350.13 399.65 350.16C399.5 350.27 399.36 350.4 399.22 350.53C399.1 350.64 398.98 350.74 398.88 350.86C398.77 350.98 398.68 351.11 398.58 351.25C398.47 351.4 398.36 351.55 398.27 351.7C398.24 351.74 398.2 351.78 398.18 351.83L360.57 421.49C356.1 420.18 350.82 418.84 345.7 417.84C345.42 417.6 345.12 417.38 344.78 417.2L328.7 408.46C328.19 408.19 327.65 408.02 327.09 407.93C326.94 405.88 326.59 403.83 325.99 401.82C323.84 394.67 319.03 388.77 312.45 385.24C300.56 378.83 265 382.11 257.99 382.83C256.28 383 254.78 384.01 253.97 385.52C253.16 387.03 253.15 388.84 253.94 390.36C257.2 396.6 274.08 428.09 285.96 434.48C292.53 438.02 300.1 438.78 307.25 436.63C310.16 435.75 312.85 434.42 315.27 432.73C315.36 432.78 315.42 432.85 315.51 432.89L331.59 441.63C332.38 442.05 333.25 442.24 334.13 442.23C334.41 442.53 334.67 442.81 334.97 443.11C337.75 445.98 341.12 449.21 344.29 452.04L309.32 516.86C309.11 517.11 308.93 517.38 308.77 517.66C308.59 517.98 308.46 518.31 308.36 518.65L297.41 538.95C296.76 540.15 296.62 541.58 297.01 542.89C297.41 544.21 298.3 545.31 299.51 545.96L324.42 559.36C325.67 560.03 327.09 560.13 328.36 559.75C329.62 559.37 330.74 558.51 331.42 557.25L378.22 470.5L460.68 508.37C463.82 510.05 468.47 512.04 473.15 510.64C475.14 510.04 477.93 508.54 479.93 504.82C482.05 500.87 482.01 496.75 479.8 493.22C478.29 490.8 475.9 488.76 472.26 486.79L394.75 439.54L432.21 370.14C432.21 370.09 432.23 370.03 432.25 369.98ZM415.29 347.13L426.45 353.13L428.6 343.13L415.29 347.13Z" fill="#4D264B"/>
</g>
<g clip-path="url(#clip2_1_194)">
<path d="M530.06 105.24C557.76 84.88 597.12 102.13 600.91 136.3L611.46 231.52L622 326.73C625.79 360.9 591.17 386.36 559.68 372.56L472 334.09L384.23 295.63C352.74 281.82 348 239.11 375.7 218.74L452.88 162L530.06 105.24Z" fill="#1B1464"/>
<path d="M555.89 381.24L380.42 304.31C371.714 300.495 364.166 294.456 358.534 286.799C352.902 279.142 349.386 270.137 348.338 260.69C347.29 251.243 348.747 241.687 352.564 232.982C356.381 224.277 362.422 216.73 370.08 211.1L524.44 97.6C532.071 91.9127 541.078 88.3593 550.537 87.3049C559.995 86.2504 569.564 87.7329 578.26 91.6V91.6C586.999 95.3668 594.577 101.393 600.215 109.059C605.854 116.726 609.348 125.755 610.34 135.22L631.45 325.65C632.498 335.097 631.041 344.654 627.225 353.359C623.408 362.064 617.367 369.611 609.709 375.242C602.051 380.872 593.045 384.386 583.598 385.432C574.151 386.478 564.594 385.019 555.89 381.2V381.24ZM570.64 109C564.989 106.475 558.767 105.503 552.615 106.183C546.462 106.863 540.603 109.172 535.64 112.87L381.32 226.38C376.347 230.037 372.424 234.939 369.944 240.592C367.464 246.245 366.515 252.451 367.191 258.587C367.868 264.723 370.147 270.573 373.8 275.549C377.452 280.526 382.349 284.454 388 286.94L563.48 363.87C569.135 366.35 575.342 367.297 581.479 366.617C587.616 365.937 593.466 363.653 598.44 359.995C603.414 356.338 607.338 351.435 609.816 345.78C612.295 340.125 613.241 333.917 612.56 327.78L591.48 137.35C590.839 131.199 588.57 125.33 584.907 120.347C581.244 115.364 576.319 111.448 570.64 109V109Z" fill="#F07F2C"/>
<path d="M474.291 185.951L458.618 221.707L469.343 226.408L485.016 190.652L474.291 185.951Z" fill="white"/>
<path d="M487 234.55C489.545 235.717 492.335 236.249 495.13 236.1C497.755 235.96 500.281 235.056 502.4 233.5C504.619 231.753 506.374 229.486 507.51 226.899C508.645 224.313 509.126 221.486 508.91 218.67C508.611 216.062 507.57 213.594 505.91 211.56C504.092 209.436 501.817 207.75 499.256 206.628C496.695 205.506 493.914 204.977 491.12 205.08C488.495 205.22 485.969 206.124 483.85 207.68C481.629 209.425 479.874 211.692 478.74 214.28C477.606 216.867 477.128 219.694 477.35 222.51C477.644 225.12 478.685 227.589 480.35 229.62C482.138 231.775 484.419 233.466 487 234.55ZM492.12 216C492.586 215.765 493.099 215.636 493.621 215.623C494.142 215.609 494.661 215.711 495.139 215.921C495.617 216.131 496.042 216.445 496.385 216.839C496.727 217.233 496.978 217.698 497.12 218.2C497.424 219.537 497.239 220.938 496.6 222.15C496.147 223.442 495.241 224.525 494.05 225.2C493.582 225.428 493.07 225.55 492.55 225.56C492.029 225.569 491.513 225.465 491.037 225.255C490.561 225.044 490.137 224.733 489.794 224.342C489.451 223.951 489.197 223.489 489.05 222.99C488.768 221.653 488.963 220.259 489.6 219.05C490.053 217.767 490.946 216.687 492.12 216V216Z" fill="white"/>
<path d="M519.81 252.29C518.685 252.609 517.481 252.492 516.44 251.96C514.44 251.067 513.59 249.85 513.89 248.31L503.36 243.69C502.761 245.355 502.515 247.126 502.639 248.891C502.763 250.656 503.254 252.376 504.08 253.94C505.74 257.113 508.76 259.66 513.14 261.58C515.891 262.916 518.954 263.476 522 263.2C524.497 262.921 526.845 261.872 528.72 260.2C530.636 258.426 532.153 256.265 533.17 253.86L544.9 227.1L534.22 222.41L532.59 226.13C532.469 224.581 531.899 223.101 530.95 221.87C529.871 220.498 528.455 219.43 526.84 218.77C524.809 217.849 522.55 217.553 520.35 217.92C518.05 218.334 515.917 219.395 514.2 220.98C510.144 224.905 507.795 230.268 507.66 235.91C507.652 238.247 508.315 240.538 509.57 242.51C510.791 244.366 512.529 245.823 514.57 246.7C516.152 247.439 517.899 247.755 519.64 247.62C521.189 247.481 522.665 246.897 523.89 245.94L522.47 249.18C521.68 250.9 520.8 252 519.81 252.29ZM525.63 238.88C525.093 239.1 524.516 239.21 523.936 239.203C523.355 239.195 522.782 239.072 522.25 238.838C521.718 238.605 521.239 238.267 520.84 237.845C520.442 237.423 520.132 236.924 519.93 236.38C519.641 235.081 519.776 233.723 520.316 232.506C520.856 231.289 521.772 230.277 522.93 229.62C523.467 229.4 524.044 229.29 524.624 229.297C525.205 229.305 525.778 229.429 526.31 229.662C526.842 229.895 527.321 230.233 527.72 230.655C528.118 231.077 528.428 231.576 528.63 232.12C528.919 233.419 528.784 234.777 528.244 235.994C527.704 237.211 526.788 238.223 525.63 238.88V238.88Z" fill="white"/>
<path d="M547.39 235.55C545.169 237.295 543.414 239.562 542.28 242.15C541.146 244.737 540.668 247.564 540.89 250.38C541.182 252.993 542.224 255.466 543.89 257.5C545.709 259.627 547.985 261.315 550.547 262.441C553.11 263.566 555.893 264.099 558.69 264C561.313 263.85 563.837 262.947 565.96 261.4C568.186 259.656 569.945 257.388 571.081 254.799C572.217 252.209 572.694 249.379 572.47 246.56C572.175 243.951 571.134 241.482 569.47 239.45C567.648 237.33 565.37 235.649 562.808 234.533C560.245 233.416 557.463 232.892 554.67 233C552.049 233.135 549.522 234.02 547.39 235.55V235.55ZM555.7 243.86C556.162 243.623 556.672 243.493 557.191 243.479C557.71 243.465 558.226 243.568 558.7 243.78C559.183 243.986 559.613 244.298 559.959 244.693C560.305 245.087 560.558 245.555 560.7 246.06C561.001 247.398 560.813 248.799 560.17 250.01C559.72 251.306 558.813 252.393 557.62 253.07C557.152 253.298 556.64 253.42 556.12 253.43C555.599 253.439 555.083 253.335 554.607 253.125C554.131 252.914 553.707 252.603 553.364 252.212C553.021 251.821 552.767 251.359 552.62 250.86C552.428 249.521 552.615 248.155 553.161 246.917C553.708 245.679 554.591 244.62 555.71 243.86H555.7Z" fill="white"/>
<path d="M451.8 254.69C450.006 253.881 448.024 253.58 446.07 253.82C444.177 254.041 442.352 254.665 440.72 255.65C440.529 253.772 439.838 251.98 438.72 250.46C437.489 248.875 435.861 247.643 434 246.89C432.381 246.137 430.603 245.794 428.82 245.89C427.261 245.981 425.75 246.466 424.43 247.3L426.04 243.63L415.31 238.93L403.38 266.18L414.11 270.88L420.44 256.44C420.632 255.927 420.927 255.46 421.307 255.066C421.688 254.672 422.145 254.36 422.65 254.15C423.179 253.974 423.738 253.905 424.294 253.947C424.85 253.988 425.392 254.138 425.89 254.39C426.407 254.585 426.88 254.881 427.281 255.261C427.683 255.64 428.005 256.095 428.23 256.6C428.429 257.111 428.519 257.658 428.493 258.206C428.467 258.754 428.327 259.29 428.08 259.78L421.74 274.23L432.42 278.91L438.75 264.46C438.948 263.945 439.25 263.477 439.637 263.085C440.024 262.693 440.488 262.384 441 262.18C442.07 261.887 443.208 261.971 444.224 262.417C445.24 262.863 446.072 263.644 446.58 264.63C446.777 265.142 446.865 265.689 446.837 266.237C446.81 266.785 446.668 267.321 446.42 267.81L440.08 282.26L450.76 286.94L457.69 271.14C459.263 267.56 459.547 264.303 458.54 261.37C457.533 258.437 455.287 256.21 451.8 254.69Z" fill="white"/>
<path d="M483 273.05C482.876 271.498 482.307 270.016 481.36 268.78C480.275 267.411 478.856 266.343 477.24 265.68C475.211 264.763 472.957 264.468 470.76 264.83C468.46 265.244 466.327 266.305 464.61 267.89C462.546 269.788 460.925 272.116 459.86 274.71C458.681 277.251 458.067 280.018 458.06 282.82C458.06 285.158 458.726 287.447 459.98 289.42C461.195 291.281 462.935 292.739 464.98 293.61C466.561 294.354 468.309 294.671 470.05 294.53C471.599 294.391 473.075 293.807 474.3 292.85L472.66 296.57L483.34 301.26L495.34 274.01L484.66 269.33L483 273.05ZM476.06 285.85C475.522 286.067 474.947 286.175 474.367 286.166C473.787 286.158 473.215 286.033 472.684 285.8C472.152 285.567 471.673 285.231 471.274 284.81C470.875 284.389 470.564 283.893 470.36 283.35C470.07 282.049 470.205 280.689 470.745 279.471C471.285 278.252 472.202 277.239 473.36 276.58C473.897 276.36 474.474 276.25 475.054 276.257C475.635 276.265 476.208 276.388 476.74 276.622C477.272 276.855 477.751 277.193 478.15 277.615C478.548 278.037 478.858 278.536 479.06 279.08C479.35 280.381 479.215 281.741 478.675 282.959C478.135 284.178 477.218 285.191 476.06 285.85V285.85Z" fill="white"/>
<path d="M530.17 289.28L517.71 283.81L506.43 291.02L514.62 272.32L503.9 267.62L488.22 303.37L498.95 308.08L503.71 297.21L505.66 311.02L518.47 316.63L513.96 298.53L530.17 289.28Z" fill="white"/>
<path d="M551.94 300.4C550.199 298.284 547.968 296.626 545.44 295.57C542.939 294.414 540.189 293.905 537.44 294.09C534.874 294.284 532.42 295.222 530.38 296.79C528.214 298.582 526.497 300.858 525.368 303.433C524.24 306.008 523.73 308.812 523.88 311.62C524.106 314.178 525.08 316.612 526.68 318.62C528.401 320.754 530.629 322.425 533.16 323.48C535.293 324.439 537.612 324.914 539.95 324.87C542.136 324.833 544.284 324.295 546.23 323.3C548.134 322.348 549.773 320.939 551 319.2L539.65 314.2C539.229 314.6 538.696 314.861 538.122 314.949C537.548 315.037 536.961 314.946 536.44 314.69C536.06 314.546 535.714 314.326 535.422 314.044C535.13 313.762 534.898 313.424 534.74 313.05C534.461 311.988 534.567 310.861 535.04 309.87L552.19 317.39C552.651 316.767 553.043 316.097 553.36 315.39C554.541 312.873 555.037 310.09 554.8 307.32C554.534 304.786 553.541 302.383 551.94 300.4V300.4ZM537 305.54C538.18 303.64 539.753 303.12 541.72 303.98C542.522 304.3 543.177 304.906 543.56 305.68C543.738 306.109 543.818 306.571 543.796 307.035C543.773 307.498 543.648 307.951 543.43 308.36L537 305.54Z" fill="white"/>
<path d="M576.79 311.18C574.776 311.434 572.839 312.116 571.11 313.18L573.32 308.18L562.59 303.48L550.59 330.73L561.32 335.43L566.21 324.27C567.003 322.47 568.03 321.423 569.29 321.13C570.99 320.909 572.717 321.223 574.23 322.03L577.23 323.36L582.23 311.91C580.515 311.182 578.636 310.929 576.79 311.18Z" fill="white"/>
<path d="M506.72 187.77L512.72 190.42L505.4 171.67L502.75 177.67C502.342 178.593 502.12 179.588 502.099 180.597C502.078 181.606 502.257 182.61 502.626 183.549C502.995 184.488 503.547 185.345 504.25 186.07C504.953 186.794 505.792 187.372 506.72 187.77V187.77Z" fill="white"/>
<path d="M527.23 196.77C529.084 197.582 531.184 197.625 533.07 196.89L533.13 197.03L577.13 179.85L560 135.83L515.94 153L516 153.15C515.07 153.507 514.219 154.044 513.496 154.73C512.774 155.417 512.194 156.239 511.79 157.15L508.9 163.74L520.64 193.83L527.23 196.77Z" fill="white"/>
</g>
<defs>
<clipPath id="clip0_1_194">
<rect width="325" height="325" fill="white"/>
</clipPath>
<clipPath id="clip1_1_194">
<rect width="310.09" height="310.1" fill="white" transform="translate(214 292)"/>
</clipPath>
<clipPath id="clip2_1_194">
<rect width="283.79" height="298.88" fill="white" transform="translate(348 87)"/>
</clipPath>
</defs>
</svg>
