<svg width="200" height="200" viewBox="0 0 200 200" fill="none" xmlns="http://www.w3.org/2000/svg">
<path d="M200 100C200 155.228 155.228 200 100 200C44.7715 200 0 155.228 0 100C0 44.7715 44.7715 0 100 0C155.228 0 200 44.7715 200 100Z" fill="white"/>
<path d="M150.26 65.24V55.93C150.26 52.37 146.97 50.47 143.3 50.47H124.22C119.23 50.47 114.69 48.46 114.69 42.8V35H102.32V44.06C102.32 59.23 86.93 70.57 71.51 70.57H65.21V82.94H73.1C79.26 82.94 83.9 87.48 83.9 93.59C83.9 99.7 78.92 104.28 73.01 104.28C67.1 104.28 62.12 99.43 62.12 93.51V91.96C62.12 88.54 59.68 86.02 56.26 86.02H45.23C40.49 86.02 37.38 81.43 37.38 76.59V70.55H25V76.59C25 86.52 31.42 94.9 40.56 97.41L43.05 126.22C43.18 127.65 43.73 128.99 44.74 130.01L79.46 162.53C80.62 163.7 82.16 164.89 83.82 164.89H117.82C119.47 164.89 121.05 163.71 122.21 162.53L156.97 130.27C157.99 129.24 158.61 127.38 158.74 125.94L159.82 114.54C159.82 114.54 175.02 114.43 175.02 96.32V84.46H169.66C147.18 84.46 150.28 65.21 150.28 65.21L150.26 65.24ZM125.51 82.95H128.26C134.17 82.95 138.99 87.69 138.99 93.6C138.99 99.51 134.18 104.29 128.26 104.29C122.34 104.29 117.53 99.58 117.53 93.67C117.53 90.25 114.76 87.59 111.34 87.59H95.42C94.48 84.5 92.75 80.65 90.42 78.05C99.11 73.84 106.19 66.93 110.35 58.29C114.18 61.27 118.98 62.86 124.2 62.86H137.62C137.62 69.05 132.43 70.59 128.25 70.59H125.5V82.96L125.51 82.95ZM95.09 123.92C95.09 123.92 102.19 130.81 110.82 122.18L100.59 111.95L107.98 104.56C111.9 111.74 119.51 116.63 128.26 116.63C137.01 116.63 144.09 112.06 148.12 105.28L146.59 123.44L115.22 152.54H86.38L54.99 123.43L53.39 105.73C57.44 112.42 64.79 116.77 73.16 116.77C77.38 116.77 81.33 115.55 84.73 113.56L95.08 123.92H95.09Z" fill="#1D1D1B"/>
</svg>
