<svg width="736" height="576" viewBox="0 0 736 576" fill="none" xmlns="http://www.w3.org/2000/svg">
<g clip-path="url(#clip0_1_58)">
<path d="M226.16 427.51L285 337.42C287.757 333.196 291.319 329.556 295.483 326.709C299.646 323.862 304.33 321.862 309.267 320.825C314.203 319.788 319.295 319.733 324.253 320.664C329.21 321.595 333.936 323.493 338.16 326.25L428.25 385.07" stroke="#BFBAAD" stroke-width="8" stroke-miterlimit="10"/>
<path d="M452.542 365.662L196.722 419.385C186.02 421.633 179.167 432.13 181.414 442.832L205.953 559.683C208.201 570.385 218.698 577.238 229.4 574.991L485.22 521.268C495.921 519.02 502.775 508.523 500.528 497.821L475.988 380.97C473.741 370.268 463.244 363.415 452.542 365.662Z" fill="#F07F2C"/>
<path d="M235.17 473.49L243.48 497.62L250 470.38L262 467.86L251.15 507.76L236.54 510.83L223.16 476L235.17 473.49Z" fill="white"/>
<path d="M277.07 464.69L278.33 502.05L267 504.42L265.75 467.06L277.07 464.69Z" fill="white"/>
<path d="M320.1 493.27L308.8 495.64L296.19 479.38L296.84 498.16L285.55 500.53L284.29 463.18L295.59 460.8L308.21 477.38L307.54 458.29L318.84 455.92L320.1 493.27Z" fill="white"/>
<path d="M353.19 448.7L353.5 457.99L343.93 459.99L344.88 488.06L333.59 490.43L332.59 462.36L323.13 464.36L322.82 455.07L353.19 448.7Z" fill="white"/>
<path d="M377.73 475.48L365.73 478L364.13 484L352.27 486.49L364.2 446.36L377.2 443.63L391.59 478.22L379.68 480.72L377.73 475.48ZM374.73 467.25L371.14 457.53L368.21 468.62L374.73 467.25Z" fill="white"/>
<path d="M417.62 436.5C419.877 437.043 421.919 438.252 423.48 439.97C425.023 441.736 426.114 443.849 426.66 446.13L414.75 448.63C414.286 447.972 413.601 447.504 412.82 447.31C411.835 447.064 410.805 447.064 409.82 447.31C408.811 447.487 407.847 447.866 406.988 448.424C406.129 448.983 405.391 449.709 404.82 450.56C403.619 452.458 403.052 454.689 403.2 456.93C403.216 457.769 403.303 458.606 403.46 459.43C403.57 460.266 403.862 461.068 404.314 461.78C404.767 462.491 405.37 463.096 406.08 463.55C407.413 464.303 409.247 464.433 411.58 463.94C412.884 463.663 414.113 463.108 415.185 462.315C416.256 461.521 417.145 460.507 417.79 459.34L408.79 461.23L408.54 452.94L427 449.09L427.39 460.81C424.723 468.143 419.2 472.703 410.82 474.49C407.954 475.174 404.963 475.146 402.11 474.41C399.628 473.739 397.401 472.347 395.71 470.41C393.948 468.284 392.757 465.744 392.25 463.03C391.242 458.269 391.731 453.312 393.65 448.84C395.025 445.75 397.137 443.045 399.8 440.96C402.623 438.764 405.921 437.261 409.43 436.57C412.118 435.918 414.921 435.894 417.62 436.5V436.5Z" fill="white"/>
<path d="M443.69 439L443.87 443.64L455.06 441.29L455.32 450.11L444.13 452.46L444.33 457.73L457.05 455.06L457.37 464.4L433.37 469.4L432.11 432.05L456.11 427.05L456.41 436.34L443.69 439Z" fill="white"/>
<path d="M319.14 523.58C318.528 524.623 317.678 525.507 316.66 526.16C315.463 526.932 314.129 527.465 312.73 527.73C310.614 528.311 308.361 528.123 306.37 527.2C305.515 526.726 304.779 526.063 304.218 525.263C303.657 524.463 303.285 523.545 303.13 522.58L310.06 521.12C310.19 522.34 310.75 522.85 311.73 522.64C312.073 522.578 312.383 522.393 312.6 522.12C312.703 521.978 312.773 521.814 312.804 521.641C312.835 521.467 312.827 521.289 312.78 521.12C312.721 520.887 312.603 520.674 312.439 520.499C312.274 520.324 312.068 520.194 311.84 520.12C311.053 519.835 310.244 519.618 309.42 519.47C308.403 519.289 307.401 519.035 306.42 518.71C305.564 518.407 304.785 517.919 304.14 517.28C303.406 516.538 302.917 515.589 302.74 514.56C302.642 514.055 302.586 513.544 302.57 513.03C302.546 512.194 302.714 511.364 303.061 510.603C303.408 509.842 303.924 509.171 304.57 508.64C306.03 507.352 307.814 506.488 309.73 506.14C312.397 505.58 314.517 505.75 316.09 506.65C316.898 507.141 317.592 507.8 318.124 508.581C318.657 509.362 319.017 510.248 319.18 511.18L312.18 512.65C312.05 511.53 311.58 511.06 310.78 511.23C310.629 511.255 310.485 511.31 310.356 511.393C310.227 511.476 310.116 511.583 310.03 511.71C309.932 511.855 309.868 512.02 309.842 512.193C309.817 512.366 309.829 512.543 309.88 512.71C309.933 512.93 310.043 513.132 310.2 513.295C310.356 513.458 310.553 513.577 310.77 513.64C311.521 513.903 312.294 514.097 313.08 514.22C314.112 514.387 315.132 514.628 316.13 514.94C316.984 515.229 317.762 515.703 318.41 516.33C319.162 517.075 319.661 518.037 319.84 519.08C319.934 519.585 319.987 520.097 320 520.61C319.996 521.661 319.698 522.689 319.14 523.58V523.58Z" fill="white"/>
<path d="M338.5 500.4L338.67 505.76L333.15 506.92L333.7 523.11L327.18 524.48L326.63 508.29L321.17 509.44L321 504.08L338.5 500.4Z" fill="white"/>
<path d="M347.43 498.53L347.83 510.67C347.84 511.006 347.88 511.341 347.95 511.67C348.034 512.25 348.343 512.775 348.81 513.13C349.076 513.29 349.373 513.393 349.682 513.431C349.99 513.469 350.303 513.441 350.6 513.35C351.013 513.288 351.409 513.14 351.762 512.917C352.115 512.693 352.418 512.398 352.65 512.05C353.108 511.297 353.321 510.42 353.26 509.54L352.86 497.39L359.35 496.03L359.75 508.18C359.841 510.077 359.47 511.968 358.67 513.69C357.931 515.275 356.807 516.65 355.4 517.69C353.988 518.72 352.372 519.436 350.66 519.79C348.673 520.317 346.562 520.081 344.74 519.13C343.899 518.607 343.184 517.906 342.643 517.077C342.102 516.248 341.75 515.31 341.61 514.33C341.449 513.583 341.359 512.823 341.34 512.06L340.94 499.91L347.43 498.53Z" fill="white"/>
<path d="M377.94 492.12L378.11 497.48L370 499.19L370.1 502.19L375.98 500.96L376.15 506.04L370.28 507.28L370.55 515.4L364 516.75L363.28 495.2L377.94 492.12Z" fill="white"/>
<path d="M395.38 488.45L395.56 493.81L387.4 495.53L387.5 498.53L393.37 497.29L393.55 502.38L387.68 503.61L387.95 511.74L381.43 513.11L380.7 491.56L395.38 488.45Z" fill="white"/>
<path d="M271.69 432.89C271.809 432.701 271.965 432.539 272.149 432.413C272.333 432.288 272.541 432.202 272.76 432.16C272.979 432.115 273.204 432.114 273.424 432.156C273.643 432.199 273.851 432.284 274.037 432.408C274.223 432.532 274.383 432.691 274.507 432.877C274.631 433.062 274.717 433.271 274.76 433.49C274.812 433.71 274.817 433.938 274.776 434.16C274.734 434.382 274.647 434.593 274.52 434.78C274.399 434.972 274.24 435.136 274.052 435.264C273.865 435.391 273.653 435.478 273.43 435.52C273.212 435.571 272.985 435.576 272.765 435.534C272.544 435.493 272.335 435.406 272.15 435.28C271.96 435.158 271.796 434.998 271.669 434.811C271.542 434.623 271.454 434.412 271.41 434.19C271.365 433.966 271.366 433.734 271.414 433.511C271.462 433.287 271.556 433.076 271.69 432.89V432.89ZM275.08 436.31L277.36 447.15L274.6 447.73L272.32 436.89L275.08 436.31Z" fill="white"/>
<path d="M287.08 434.19C287.804 434.424 288.444 434.866 288.92 435.46C289.462 436.156 289.829 436.972 289.99 437.84L291.33 444.22L288.59 444.79L287.33 438.79C287.227 438.071 286.846 437.422 286.27 436.98C285.992 436.799 285.68 436.678 285.352 436.627C285.025 436.575 284.69 436.593 284.37 436.68C284.044 436.725 283.731 436.838 283.451 437.01C283.17 437.182 282.928 437.41 282.74 437.68C282.387 438.318 282.301 439.069 282.5 439.77L283.75 445.77L280.99 446.35L278.72 435.5L281.48 434.92L281.82 436.55C282.028 435.921 282.409 435.363 282.92 434.94C283.501 434.487 284.181 434.179 284.904 434.042C285.628 433.904 286.374 433.941 287.08 434.15V434.19Z" fill="white"/>
<path d="M299.73 432C300.186 432.224 300.585 432.548 300.899 432.948C301.212 433.348 301.431 433.814 301.54 434.31L298.72 434.9C298.45 434 297.8 433.66 296.72 433.9C296.287 433.967 295.885 434.166 295.57 434.47C295.457 434.589 295.375 434.735 295.331 434.894C295.287 435.052 295.284 435.219 295.32 435.38C295.342 435.511 295.394 435.635 295.472 435.743C295.55 435.85 295.652 435.938 295.77 436C296.038 436.136 296.33 436.218 296.63 436.24C296.96 436.24 297.42 436.24 298.02 436.31C298.715 436.301 299.41 436.341 300.1 436.43C300.647 436.507 301.167 436.72 301.61 437.05C302.102 437.443 302.427 438.007 302.52 438.63C302.664 439.249 302.59 439.899 302.31 440.47C302.014 441.08 301.558 441.599 300.99 441.97C300.335 442.405 299.601 442.708 298.83 442.86C297.707 443.145 296.522 443.061 295.45 442.62C294.977 442.401 294.56 442.078 294.231 441.674C293.902 441.271 293.669 440.797 293.55 440.29L296.37 439.7C296.424 439.893 296.517 440.073 296.645 440.228C296.772 440.383 296.931 440.51 297.11 440.6C297.511 440.783 297.965 440.819 298.39 440.7C298.834 440.63 299.244 440.42 299.56 440.1C299.689 439.972 299.783 439.812 299.832 439.637C299.881 439.462 299.884 439.277 299.84 439.1C299.818 438.966 299.765 438.839 299.686 438.73C299.606 438.62 299.501 438.531 299.38 438.47C299.113 438.333 298.82 438.251 298.52 438.23C298.045 438.184 297.567 438.164 297.09 438.17C296.402 438.169 295.714 438.129 295.03 438.05C294.496 437.971 293.988 437.766 293.55 437.45C293.073 437.081 292.755 436.545 292.66 435.95C292.538 435.352 292.6 434.731 292.84 434.17C293.122 433.551 293.568 433.022 294.13 432.64C294.824 432.147 295.615 431.807 296.45 431.64C297.552 431.371 298.713 431.499 299.73 432V432Z" fill="white"/>
<path d="M313 428.93C313.876 429.239 314.648 429.786 315.23 430.51C315.876 431.306 316.313 432.252 316.5 433.26C316.74 434.246 316.74 435.274 316.5 436.26C316.264 437.165 315.779 437.987 315.1 438.63C314.433 439.262 313.601 439.692 312.7 439.87C311.985 440.04 311.236 440.005 310.54 439.77C309.878 439.532 309.282 439.142 308.8 438.63L310.27 445.63L307.51 446.21L304.15 430.21L306.91 429.63L307.26 431.32C307.485 430.68 307.875 430.111 308.39 429.67C308.965 429.195 309.655 428.877 310.39 428.75C311.26 428.568 312.163 428.631 313 428.93V428.93ZM308.86 431.93C308.468 432.286 308.181 432.742 308.03 433.25C307.878 433.844 307.878 434.466 308.03 435.06C308.138 435.66 308.4 436.221 308.79 436.69C309.128 437.095 309.571 437.4 310.07 437.57C310.549 437.72 311.058 437.748 311.55 437.65C312.041 437.546 312.496 437.315 312.87 436.98C313.268 436.625 313.556 436.163 313.7 435.65C313.852 435.056 313.852 434.434 313.7 433.84C313.59 433.236 313.325 432.67 312.93 432.2C312.597 431.792 312.152 431.49 311.65 431.33C311.17 431.189 310.663 431.17 310.174 431.274C309.685 431.379 309.23 431.605 308.85 431.93H308.86Z" fill="white"/>
<path d="M317.6 423.25C317.723 423.061 317.881 422.899 318.067 422.771C318.252 422.644 318.461 422.555 318.681 422.508C318.901 422.462 319.129 422.459 319.35 422.501C319.571 422.542 319.782 422.627 319.97 422.75C320.16 422.872 320.324 423.032 320.451 423.219C320.578 423.407 320.666 423.618 320.71 423.84C320.761 424.062 320.766 424.291 320.725 424.515C320.684 424.739 320.597 424.951 320.47 425.14C320.348 425.33 320.188 425.494 320.001 425.621C319.813 425.748 319.602 425.836 319.38 425.88C319.161 425.926 318.936 425.929 318.716 425.887C318.496 425.846 318.287 425.762 318.1 425.64C317.72 425.387 317.454 424.995 317.36 424.547C317.267 424.1 317.353 423.634 317.6 423.25V423.25ZM321 426.66L323.27 437.51L320.51 438.09L318.24 427.24L321 426.66Z" fill="white"/>
<path d="M328.79 425.43C329.262 424.951 329.869 424.627 330.53 424.5L331.12 427.32L330.43 427.46C330.09 427.504 329.762 427.615 329.465 427.786C329.168 427.958 328.908 428.187 328.7 428.46C328.349 429.158 328.285 429.965 328.52 430.71L329.67 436.15L326.91 436.73L324.63 425.89L327.39 425.31L327.79 427.23C327.969 426.556 328.313 425.938 328.79 425.43V425.43Z" fill="white"/>
<path d="M344.56 428.31L336.65 430C336.828 430.636 337.238 431.183 337.8 431.53C338.077 431.699 338.386 431.81 338.707 431.859C339.028 431.907 339.355 431.89 339.67 431.81C340.133 431.739 340.567 431.538 340.92 431.23C341.201 430.949 341.413 430.607 341.54 430.23L344.54 429.6C344.446 430.687 343.992 431.711 343.25 432.51C342.482 433.284 341.519 433.837 340.463 434.11C339.407 434.383 338.297 434.365 337.25 434.06C336.348 433.769 335.547 433.228 334.94 432.5C334.294 431.682 333.846 430.725 333.631 429.705C333.416 428.685 333.439 427.629 333.7 426.62C333.966 425.713 334.486 424.9 335.2 424.28C335.957 423.633 336.871 423.195 337.85 423.01C338.818 422.789 339.826 422.817 340.78 423.09C341.677 423.357 342.48 423.869 343.1 424.57C343.77 425.345 344.222 426.283 344.41 427.29C344.488 427.625 344.539 427.966 344.56 428.31V428.31ZM341.41 427.12C341.334 426.794 341.192 426.487 340.993 426.219C340.793 425.951 340.54 425.726 340.25 425.56C339.661 425.227 338.966 425.134 338.31 425.3C337.678 425.414 337.118 425.774 336.75 426.3C336.371 426.857 336.204 427.531 336.28 428.2L341.41 427.12Z" fill="white"/>
<path d="M352.77 420.34C353.422 420.522 354.017 420.866 354.5 421.34L353.38 416.02L356.12 415.44L359.12 429.93L356.38 430.5L355.99 428.68C355.757 429.352 355.362 429.957 354.84 430.44C354.3 430.943 353.632 431.289 352.91 431.44C352.014 431.634 351.08 431.568 350.22 431.25C349.344 430.926 348.57 430.374 347.98 429.65C347.33 428.851 346.89 427.902 346.7 426.89C346.469 425.9 346.493 424.868 346.77 423.89C347.016 422.995 347.5 422.182 348.17 421.54C348.833 420.908 349.662 420.478 350.56 420.3C351.288 420.123 352.049 420.137 352.77 420.34ZM350.44 423.2C350.042 423.549 349.751 424.003 349.6 424.51C349.443 425.1 349.443 425.72 349.6 426.31C349.714 426.913 349.979 427.477 350.37 427.95C350.712 428.359 351.163 428.664 351.67 428.83C352.14 428.989 352.644 429.02 353.13 428.92C353.621 428.816 354.076 428.585 354.45 428.25C354.845 427.895 355.135 427.438 355.29 426.93C355.447 426.337 355.447 425.713 355.29 425.12C355.179 424.517 354.91 423.954 354.51 423.49C354.182 423.091 353.749 422.79 353.26 422.622C352.771 422.455 352.244 422.426 351.74 422.54C351.256 422.64 350.807 422.868 350.44 423.2Z" fill="white"/>
<path d="M376.36 415.61C377.236 415.919 378.008 416.466 378.59 417.19C379.234 417.989 379.673 418.933 379.87 419.94C380.085 420.931 380.065 421.959 379.81 422.94C379.574 423.845 379.089 424.667 378.41 425.31C377.743 425.942 376.911 426.372 376.01 426.55C375.295 426.72 374.546 426.685 373.85 426.45C373.188 426.212 372.592 425.822 372.11 425.31L372.49 427.13L369.73 427.71L366.73 413.22L369.49 412.64L370.61 417.97C370.835 417.328 371.229 416.758 371.75 416.32C372.324 415.843 373.014 415.526 373.75 415.4C374.623 415.228 375.526 415.301 376.36 415.61V415.61ZM372.22 418.61C371.828 418.964 371.544 419.422 371.4 419.93C371.25 420.52 371.237 421.137 371.362 421.733C371.487 422.329 371.746 422.889 372.12 423.37C372.46 423.778 372.906 424.082 373.41 424.25C373.885 424.401 374.391 424.428 374.88 424.33C375.371 424.226 375.826 423.995 376.2 423.66C376.598 423.305 376.886 422.843 377.03 422.33C377.182 421.736 377.182 421.114 377.03 420.52C376.92 419.916 376.655 419.35 376.26 418.88C375.935 418.47 375.497 418.164 375 418C374.52 417.859 374.013 417.84 373.524 417.944C373.035 418.049 372.58 418.275 372.2 418.6L372.22 418.61Z" fill="white"/>
<path d="M383.06 413.63L387.44 420.76L388.73 412.43L391.61 411.83L388.19 429.22L385.32 429.83L386.45 424.03L380 414.28L383.06 413.63Z" fill="white"/>
</g>
<g clip-path="url(#clip1_1_58)">
<path d="M280.88 85.04H49.2C25.9157 85.04 7.03999 103.916 7.03999 127.2V304.88C7.03999 328.164 25.9157 347.04 49.2 347.04H280.88C304.164 347.04 323.04 328.164 323.04 304.88V127.2C323.04 103.916 304.164 85.04 280.88 85.04Z" fill="#FFFCF5" stroke="#006481" stroke-width="14.08" stroke-miterlimit="10"/>
<path d="M40.86 127.77H51.11V167H40.86V127.77Z" fill="#006481"/>
<path d="M98.37 139.22C99.5312 140.214 100.452 141.459 101.063 142.86C101.675 144.261 101.961 145.782 101.9 147.31V167H92.1V163.61C90.1 166.19 87.0567 167.477 82.97 167.47C80.1975 167.628 77.4733 166.695 75.38 164.87C74.4573 163.987 73.733 162.918 73.2554 161.733C72.7779 160.549 72.5578 159.276 72.61 158C72.548 156.723 72.7872 155.449 73.3083 154.282C73.8295 153.115 74.6179 152.086 75.61 151.28C77.61 149.68 80.47 148.85 84.2 148.82H92.1V148.48C92.1383 147.842 92.023 147.203 91.7638 146.619C91.5045 146.034 91.1089 145.52 90.61 145.12C89.3487 144.279 87.8418 143.884 86.33 144C84.883 144.026 83.445 144.235 82.05 144.62C80.3973 145.054 78.7926 145.654 77.26 146.41L74.51 139.69C76.7887 138.636 79.1628 137.802 81.6 137.2C83.8936 136.657 86.243 136.385 88.6 136.39C92.8 136.357 96.0567 137.3 98.37 139.22ZM90 159.61C91.049 158.977 91.8124 157.963 92.13 156.78V154.15H86.16C83.36 154.15 81.96 155.193 81.96 157.28C81.9406 157.751 82.0287 158.219 82.2175 158.651C82.4064 159.082 82.6911 159.465 83.05 159.77C83.9054 160.431 84.9707 160.761 86.05 160.7C87.4452 160.733 88.8191 160.354 90 159.61V159.61Z" fill="#006481"/>
<path d="M157.84 139.47C159.914 141.785 160.992 144.825 160.84 147.93V167H150.84V150.79C150.922 149.316 150.443 147.866 149.5 146.73C149.038 146.232 148.473 145.841 147.844 145.584C147.216 145.327 146.539 145.209 145.86 145.24C145.064 145.225 144.275 145.391 143.553 145.726C142.831 146.06 142.194 146.554 141.69 147.17C140.615 148.571 140.07 150.306 140.15 152.07V167H130.15V150.79C130.234 149.314 129.751 147.862 128.8 146.73C128.339 146.231 127.774 145.84 127.145 145.582C126.516 145.325 125.839 145.208 125.16 145.24C124.361 145.229 123.569 145.397 122.842 145.731C122.116 146.065 121.473 146.556 120.96 147.17C119.874 148.566 119.321 150.303 119.4 152.07V167H109.48V136.73H119.4V141.73C120.366 140.053 121.769 138.671 123.46 137.73C125.242 136.789 127.235 136.317 129.25 136.36C131.493 136.297 133.702 136.922 135.58 138.15C137.341 139.364 138.657 141.12 139.33 143.15C140.166 141.074 141.622 139.307 143.5 138.09C145.451 136.887 147.709 136.279 150 136.34C151.453 136.282 152.902 136.531 154.253 137.07C155.604 137.61 156.826 138.427 157.84 139.47V139.47Z" fill="#006481"/>
<path d="M207.23 139.22C208.393 140.213 209.315 141.457 209.927 142.859C210.538 144.26 210.823 145.782 210.76 147.31V167H201V163.61C199 166.19 195.957 167.477 191.87 167.47C189.098 167.628 186.373 166.695 184.28 164.87C183.35 163.991 182.618 162.923 182.134 161.738C181.649 160.553 181.423 159.279 181.47 158C181.408 156.723 181.647 155.449 182.168 154.282C182.689 153.115 183.478 152.086 184.47 151.28C186.47 149.68 189.33 148.85 193.06 148.82H201V148.48C201.04 147.842 200.926 147.205 200.668 146.62C200.411 146.036 200.017 145.521 199.52 145.12C198.244 144.27 196.718 143.875 195.19 144C193.743 144.027 192.305 144.235 190.91 144.62C189.258 145.056 187.653 145.656 186.12 146.41L183.38 139.69C185.655 138.635 188.026 137.801 190.46 137.2C192.754 136.657 195.103 136.385 197.46 136.39C201.66 136.357 204.917 137.3 207.23 139.22ZM198.83 159.61C199.894 158.985 200.673 157.97 201 156.78V154.15H195C192.2 154.15 190.8 155.193 190.8 157.28C190.78 157.752 190.869 158.221 191.06 158.653C191.251 159.085 191.538 159.467 191.9 159.77C192.753 160.435 193.82 160.766 194.9 160.7C196.289 160.73 197.655 160.351 198.83 159.61V159.61Z" fill="#006481"/>
<path d="M69.87 205.73V233.34C69.9254 235.944 69.2048 238.506 67.8 240.7C66.3705 242.843 64.3581 244.533 62 245.57C59.2912 246.757 56.3567 247.34 53.4 247.28C50.9178 247.29 48.4478 246.933 46.07 246.22C43.8662 245.581 41.7698 244.617 39.85 243.36L43.32 236.47C44.7039 237.405 46.2118 238.142 47.8 238.66C49.3755 239.175 51.0224 239.438 52.68 239.44C54.5813 239.546 56.4606 238.991 58 237.87C58.6459 237.37 59.1639 236.725 59.5116 235.986C59.8593 235.247 60.0267 234.436 60 233.62V230.37C58.9936 231.686 57.6821 232.738 56.1787 233.435C54.6753 234.132 53.025 234.453 51.37 234.37C49.0129 234.407 46.6933 233.776 44.68 232.55C42.6901 231.302 41.0977 229.512 40.09 227.39C39.0052 225.013 38.4363 222.433 38.4208 219.82C38.4053 217.207 38.9435 214.62 40 212.23C40.9953 210.167 42.5603 208.432 44.51 207.23C46.4984 206.016 48.7907 205.392 51.12 205.43C52.8622 205.395 54.5914 205.736 56.19 206.43C57.6782 207.103 58.9767 208.134 59.97 209.43V205.73H69.87ZM58.28 225.11C59.371 223.624 59.9593 221.829 59.9593 219.985C59.9593 218.141 59.371 216.346 58.28 214.86C57.7176 214.241 57.0322 213.747 56.2676 213.409C55.503 213.07 54.6761 212.896 53.84 212.896C53.0039 212.896 52.177 213.07 51.4124 213.409C50.6478 213.747 49.9624 214.241 49.4 214.86C48.2902 216.332 47.69 218.126 47.69 219.97C47.69 221.814 48.2902 223.608 49.4 225.08C49.9447 225.725 50.6274 226.24 51.3976 226.586C52.1678 226.932 53.0058 227.101 53.85 227.08C54.6891 227.107 55.5235 226.943 56.2906 226.602C57.0577 226.261 57.7378 225.751 58.28 225.11Z" fill="#006481"/>
<path d="M91.84 206.74C93.5831 205.788 95.544 205.305 97.53 205.34V214.47C97.0248 214.423 96.5174 214.403 96.01 214.41C93.9768 214.315 91.9693 214.895 90.3 216.06C89.5892 216.595 88.9978 217.272 88.5639 218.049C88.13 218.826 87.863 219.684 87.78 220.57V236H77.78V205.7H87.78V210.7C88.7639 209.048 90.1638 207.682 91.84 206.74Z" fill="#006481"/>
<path d="M125.93 208.22C127.091 209.214 128.012 210.459 128.623 211.86C129.235 213.261 129.521 214.782 129.46 216.31V236H119.66V232.58C117.66 235.16 114.617 236.447 110.53 236.44C107.758 236.598 105.033 235.665 102.94 233.84C102.019 232.958 101.295 231.89 100.818 230.708C100.34 229.525 100.119 228.254 100.17 226.98C100.11 225.703 100.349 224.43 100.871 223.263C101.392 222.096 102.179 221.067 103.17 220.26C105.17 218.66 108.04 217.83 111.77 217.8H119.67V217.46C119.708 216.822 119.593 216.183 119.334 215.599C119.075 215.014 118.679 214.5 118.18 214.1C116.926 213.237 115.419 212.822 113.9 212.92C112.45 212.947 111.009 213.155 109.61 213.54C107.961 213.976 106.36 214.576 104.83 215.33L102.08 208.61C104.359 207.556 106.733 206.722 109.17 206.12C111.463 205.576 113.813 205.304 116.17 205.31C120.37 205.34 123.61 206.3 125.93 208.22ZM117.53 228.61C118.579 227.977 119.342 226.963 119.66 225.78V223.15H113.72C110.92 223.15 109.52 224.193 109.52 226.28C109.498 226.751 109.585 227.22 109.774 227.652C109.963 228.084 110.249 228.466 110.61 228.77C111.465 229.431 112.531 229.761 113.61 229.7C114.995 229.727 116.358 229.348 117.53 228.61V228.61Z" fill="#006481"/>
<path d="M163.47 207.33C165.618 208.637 167.338 210.541 168.42 212.81C169.641 215.372 170.247 218.183 170.19 221.02C170.251 223.803 169.666 226.562 168.48 229.08C167.416 231.31 165.724 233.18 163.61 234.46C161.395 235.756 158.865 236.414 156.3 236.36C154.514 236.387 152.744 236.014 151.12 235.27C149.554 234.551 148.182 233.467 147.12 232.11V246.89H137.12V205.73H147.12V209.65C148.151 208.276 149.499 207.171 151.048 206.429C152.597 205.688 154.303 205.331 156.02 205.39C158.636 205.328 161.217 206 163.47 207.33V207.33ZM158.34 226.23C159.598 224.704 160.247 222.766 160.16 220.79C160.247 218.808 159.599 216.864 158.34 215.33C157.758 214.649 157.032 214.107 156.213 213.744C155.395 213.38 154.505 213.205 153.61 213.23C152.727 213.205 151.849 213.382 151.044 213.745C150.238 214.109 149.526 214.651 148.96 215.33C147.719 216.872 147.083 218.813 147.17 220.79C147.08 222.761 147.717 224.697 148.96 226.23C149.53 226.901 150.245 227.436 151.049 227.794C151.854 228.153 152.729 228.325 153.61 228.3C154.503 228.329 155.391 228.158 156.209 227.8C157.027 227.442 157.755 226.905 158.34 226.23V226.23Z" fill="#006481"/>
<path d="M204.47 208.47C206.547 210.784 207.626 213.825 207.47 216.93V236H197.47V219.79C197.554 218.309 197.059 216.853 196.09 215.73C195.604 215.225 195.015 214.83 194.362 214.573C193.71 214.316 193.01 214.202 192.31 214.24C191.489 214.223 190.675 214.387 189.924 214.72C189.174 215.054 188.507 215.549 187.97 216.17C186.866 217.558 186.302 219.298 186.38 221.07V236.07H176.38V194.47H186.38V210.66C187.378 208.971 188.821 207.587 190.55 206.66C192.361 205.742 194.37 205.282 196.4 205.32C197.891 205.247 199.381 205.49 200.771 206.033C202.162 206.576 203.423 207.406 204.47 208.47V208.47Z" fill="#006481"/>
<path d="M223.68 193.27C224.632 194.314 225.16 195.677 225.16 197.09C225.16 198.503 224.632 199.866 223.68 200.91C222.663 201.885 221.309 202.43 219.9 202.43C218.491 202.43 217.137 201.885 216.12 200.91C215.168 199.866 214.64 198.503 214.64 197.09C214.64 195.677 215.168 194.314 216.12 193.27C217.149 192.319 218.499 191.791 219.9 191.791C221.301 191.791 222.651 192.319 223.68 193.27V193.27ZM215 205.73H224.91V236H215V205.73Z" fill="#006481"/>
<path d="M247 213.63C246.167 213.604 245.339 213.771 244.581 214.118C243.823 214.465 243.155 214.982 242.63 215.63C241.543 217.185 240.96 219.037 240.96 220.935C240.96 222.833 241.543 224.685 242.63 226.24C243.156 226.887 243.823 227.404 244.581 227.751C245.339 228.098 246.167 228.265 247 228.24C248.217 228.318 249.43 228.036 250.487 227.427C251.543 226.819 252.397 225.912 252.94 224.82L260.28 229.02C259.09 231.33 257.21 233.21 254.9 234.4C252.3 235.717 249.414 236.37 246.5 236.3C243.657 236.361 240.845 235.707 238.32 234.4C236.015 233.176 234.118 231.306 232.86 229.02C231.563 226.55 230.922 223.789 231 221C230.953 218.137 231.642 215.31 233 212.79C234.265 210.463 236.184 208.558 238.52 207.31C241.041 206.045 243.822 205.381 246.643 205.37C249.464 205.36 252.249 206.003 254.78 207.25C257.082 208.447 258.988 210.284 260.27 212.54L253.05 216.74C252.405 215.735 251.506 214.917 250.443 214.371C249.381 213.825 248.193 213.569 247 213.63V213.63Z" fill="#006481"/>
<path d="M71.44 263.47V305H61.44V301.08C60.4443 302.453 59.1253 303.559 57.6 304.3C55.9969 305.043 54.2469 305.416 52.48 305.39C49.8772 305.435 47.315 304.741 45.09 303.39C42.9291 302.067 41.1937 300.151 40.09 297.87C38.8712 295.312 38.2685 292.503 38.33 289.67C38.2672 286.882 38.8598 284.118 40.06 281.6C41.1656 279.397 42.8801 277.558 45 276.3C47.2018 274.999 49.7229 274.337 52.28 274.39C54.0888 274.364 55.8801 274.746 57.52 275.51C59.0645 276.26 60.416 277.355 61.47 278.71V263.47H71.44ZM59.68 295.47C60.8428 293.881 61.4695 291.964 61.4695 289.995C61.4695 288.026 60.8428 286.109 59.68 284.52C59.0812 283.864 58.3522 283.34 57.5395 282.981C56.7268 282.623 55.8483 282.437 54.96 282.437C54.0717 282.437 53.1932 282.623 52.3805 282.981C51.5678 283.34 50.8388 283.864 50.24 284.52C49.0586 286.095 48.42 288.011 48.42 289.98C48.42 291.949 49.0586 293.865 50.24 295.44C50.8355 296.102 51.5634 296.631 52.3765 296.993C53.1897 297.355 54.0699 297.542 54.96 297.542C55.8501 297.542 56.7303 297.355 57.5435 296.993C58.3566 296.631 59.0845 296.102 59.68 295.44V295.47Z" fill="#006481"/>
<path d="M104.82 278.76C107.487 281.673 108.82 285.673 108.82 290.76C108.82 291.54 108.82 292.14 108.77 292.55H87.68C88.0566 294.124 88.9424 295.531 90.2 296.55C91.4618 297.484 93.0009 297.966 94.57 297.92C95.8713 297.923 97.159 297.654 98.35 297.13C99.5964 296.587 100.727 295.809 101.68 294.84L106.89 300.05C105.327 301.8 103.384 303.168 101.21 304.05C98.8113 304.998 96.249 305.464 93.67 305.42C90.7209 305.49 87.7995 304.837 85.16 303.52C82.8076 302.323 80.8675 300.449 79.59 298.14C78.2482 295.641 77.5829 292.835 77.66 290C77.6132 287.137 78.3018 284.31 79.66 281.79C80.924 279.456 82.852 277.549 85.2 276.31C87.7568 274.978 90.6077 274.311 93.49 274.37C98.3967 274.383 102.173 275.847 104.82 278.76ZM99.11 287.22C99.144 286.45 99.0255 285.681 98.7612 284.956C98.4969 284.232 98.0921 283.567 97.57 283C96.4858 281.984 95.0558 281.419 93.57 281.419C92.0843 281.419 90.6542 281.984 89.57 283C88.4414 284.165 87.7069 285.655 87.47 287.26L99.11 287.22Z" fill="#006481"/>
<path d="M125.38 281.23C124.66 281.197 123.945 281.36 123.31 281.7C123.061 281.844 122.855 282.053 122.716 282.305C122.577 282.557 122.509 282.842 122.52 283.13C122.543 283.493 122.672 283.84 122.893 284.129C123.114 284.417 123.416 284.634 123.76 284.75C125.021 285.322 126.334 285.774 127.68 286.1C129.514 286.62 131.317 287.244 133.08 287.97C134.526 288.593 135.802 289.553 136.8 290.77C137.893 292.163 138.451 293.901 138.37 295.67C138.424 297.071 138.128 298.463 137.508 299.72C136.888 300.978 135.964 302.06 134.82 302.87C132.09 304.712 128.839 305.623 125.55 305.47C123.046 305.483 120.554 305.115 118.16 304.38C115.889 303.697 113.761 302.605 111.88 301.16L115.02 294.72C116.683 295.889 118.5 296.821 120.42 297.49C122.134 298.122 123.943 298.461 125.77 298.49C126.574 298.529 127.374 298.368 128.1 298.02C128.359 297.897 128.577 297.702 128.729 297.46C128.881 297.217 128.961 296.936 128.96 296.65C128.949 296.267 128.823 295.896 128.598 295.586C128.373 295.276 128.06 295.04 127.7 294.91C126.429 294.348 125.11 293.899 123.76 293.57C121.966 293.055 120.205 292.427 118.49 291.69C117.09 291.056 115.854 290.108 114.88 288.92C113.805 287.55 113.259 285.839 113.34 284.1C113.285 282.709 113.572 281.326 114.177 280.072C114.782 278.818 115.686 277.732 116.81 276.91C119.439 275.069 122.604 274.151 125.81 274.3C130.253 274.306 134.611 275.526 138.41 277.83L135.05 284.33C131.103 282.257 127.88 281.223 125.38 281.23Z" fill="#006481"/>
<path d="M153.36 262.27C154.319 263.311 154.851 264.675 154.851 266.09C154.851 267.505 154.319 268.869 153.36 269.91C152.343 270.885 150.989 271.43 149.58 271.43C148.171 271.43 146.817 270.885 145.8 269.91C144.848 268.866 144.32 267.503 144.32 266.09C144.32 264.677 144.848 263.314 145.8 262.27C146.829 261.319 148.179 260.791 149.58 260.791C150.981 260.791 152.331 261.319 153.36 262.27V262.27ZM144.71 274.73H154.62V305H144.71V274.73Z" fill="#006481"/>
<path d="M192.13 274.73V302.34C192.182 304.945 191.458 307.507 190.05 309.7C188.627 311.845 186.617 313.536 184.26 314.57C181.551 315.757 178.617 316.34 175.66 316.28C173.178 316.29 170.708 315.933 168.33 315.22C166.126 314.582 164.029 313.618 162.11 312.36L165.58 305.47C166.964 306.405 168.472 307.142 170.06 307.66C171.632 308.174 173.276 308.438 174.93 308.44C176.831 308.547 178.711 307.992 180.25 306.87C180.897 306.371 181.416 305.726 181.764 304.987C182.112 304.248 182.278 303.436 182.25 302.62V299.37C181.246 300.687 179.937 301.739 178.435 302.436C176.933 303.133 175.284 303.454 173.63 303.37C171.273 303.407 168.953 302.776 166.94 301.55C164.95 300.302 163.358 298.512 162.35 296.39C161.266 294.015 160.7 291.437 160.69 288.826C160.679 286.216 161.225 283.633 162.29 281.25C163.28 279.184 164.846 277.447 166.8 276.25C168.788 275.036 171.081 274.412 173.41 274.45C175.149 274.413 176.876 274.754 178.47 275.45C179.961 276.117 181.261 277.149 182.25 278.45V274.75L192.13 274.73ZM180.53 294.11C181.621 292.624 182.209 290.829 182.209 288.985C182.209 287.141 181.621 285.346 180.53 283.86C179.968 283.243 179.283 282.75 178.519 282.413C177.756 282.075 176.93 281.901 176.095 281.901C175.26 281.901 174.435 282.075 173.671 282.413C172.907 282.75 172.222 283.243 171.66 283.86C170.55 285.332 169.95 287.126 169.95 288.97C169.95 290.814 170.55 292.608 171.66 294.08C172.205 294.725 172.887 295.24 173.658 295.586C174.428 295.932 175.266 296.101 176.11 296.08C176.948 296.107 177.781 295.943 178.546 295.602C179.312 295.261 179.99 294.751 180.53 294.11V294.11Z" fill="#006481"/>
<path d="M228 277.47C230.081 279.781 231.16 282.824 231 285.93V305H221.09V288.79C221.172 287.306 220.669 285.849 219.69 284.73C219.205 284.231 218.621 283.841 217.974 283.584C217.328 283.327 216.635 283.21 215.94 283.24C214.424 283.225 212.964 283.811 211.88 284.87C210.782 285.979 210.115 287.444 210 289V305H200V274.7H210V279.63C210.998 277.941 212.441 276.557 214.17 275.63C215.981 274.712 217.99 274.252 220.02 274.29C221.499 274.228 222.975 274.479 224.35 275.027C225.725 275.575 226.969 276.407 228 277.47V277.47Z" fill="#006481"/>
<path d="M263.83 278.76C266.497 281.673 267.83 285.673 267.83 290.76C267.83 291.54 267.83 292.14 267.77 292.55H246.7C247.069 294.128 247.956 295.536 249.22 296.55C250.482 297.484 252.021 297.966 253.59 297.92C254.891 297.921 256.178 297.652 257.37 297.13C258.616 296.587 259.747 295.809 260.7 294.84L265.91 300.05C264.343 301.8 262.397 303.168 260.22 304.05C257.825 304.999 255.266 305.465 252.69 305.42C249.741 305.491 246.819 304.839 244.18 303.52C241.825 302.326 239.885 300.452 238.61 298.14C237.278 295.666 236.61 292.889 236.67 290.08C236.628 287.218 237.316 284.392 238.67 281.87C239.941 279.537 241.871 277.631 244.22 276.39C246.777 275.058 249.628 274.391 252.51 274.45C257.403 274.41 261.177 275.847 263.83 278.76ZM258.12 287.22C258.158 286.448 258.041 285.676 257.776 284.95C257.512 284.223 257.105 283.557 256.58 282.99C255.496 281.974 254.066 281.409 252.58 281.409C251.094 281.409 249.664 281.974 248.58 282.99C247.459 284.161 246.726 285.648 246.48 287.25L258.12 287.22Z" fill="#006481"/>
<path d="M287.83 275.74C289.574 274.789 291.534 274.307 293.52 274.34V283.47C293.018 283.423 292.514 283.403 292.01 283.41C289.974 283.315 287.963 283.895 286.29 285.06C285.579 285.595 284.988 286.272 284.554 287.049C284.12 287.826 283.853 288.684 283.77 289.57V305H273.77V274.7H283.77V279.7C284.754 278.048 286.154 276.682 287.83 275.74Z" fill="#006481"/>
</g>
<g clip-path="url(#clip2_1_58)">
<path d="M549.227 301.26C538.229 296.148 528.395 288.838 520.333 279.783L513.656 272.305L503.617 271.953C488.883 271.445 474.498 267.299 461.749 259.884C449 252.47 438.284 242.02 430.562 229.469C422.84 216.918 418.352 202.657 417.499 187.964C416.647 173.271 419.457 158.604 425.678 145.275C431.609 132.634 440.424 121.56 451.417 112.938C462.409 104.316 475.276 98.3852 488.987 95.6196L498.222 93.7742L503.593 86.0418C512.912 72.6504 525.746 62.0826 540.69 55.4938C555.635 48.905 572.115 46.549 588.329 48.6834C604.542 50.8179 619.865 57.3605 632.621 67.596C645.377 77.8314 655.076 91.3655 660.656 106.718C667.037 123.98 667.863 142.789 663.019 160.519L660.528 169.613L665.063 177.896C671.764 190.171 675.498 203.835 675.967 217.795C676.436 231.755 673.626 245.624 667.764 258.294C657.798 279.68 639.721 296.22 617.511 304.276C595.301 312.331 570.776 311.243 549.333 301.25L549.227 301.26Z" fill="#FFFFF1"/>
<g style="mix-blend-mode:multiply">
<path d="M548.898 197.07C582.106 212.546 621.538 198.244 636.972 165.125C652.406 132.007 637.997 92.6135 604.79 77.1378C571.582 61.662 532.15 75.9643 516.716 109.083C501.281 142.201 515.69 181.595 548.898 197.07Z" fill="#FFED00"/>
</g>
<g style="mix-blend-mode:multiply">
<path d="M478.634 242.944C511.842 258.42 551.274 244.118 566.708 210.999C582.143 177.881 567.734 138.487 534.526 123.012C501.318 107.536 461.886 121.838 446.452 154.957C431.018 188.075 445.427 227.469 478.634 242.944Z" fill="#00B2FF"/>
<g style="mix-blend-mode:multiply">
<path d="M558.883 280.542C592.09 296.018 631.522 281.716 646.957 248.597C662.391 215.479 647.982 176.085 614.774 160.61C581.567 145.134 542.134 159.436 526.7 192.555C511.266 225.673 525.675 265.067 558.883 280.542Z" fill="#FF008C"/>
</g>
</g>
<path d="M640.626 171.936C641.38 170.578 642.081 169.202 642.73 167.809C646.932 159.156 649.364 149.751 649.887 140.143C650.409 130.534 649.012 120.914 645.775 111.842C642.538 102.771 637.527 94.4289 631.033 87.3027C624.539 80.1765 616.692 74.4084 607.95 70.3343C599.208 66.2601 589.745 63.9614 580.111 63.5719C570.478 63.1825 560.867 64.7101 551.839 68.0658C542.81 71.4215 534.545 76.5383 527.523 83.1181C520.502 89.6979 514.865 97.6092 510.94 106.391C510.311 107.741 509.683 109.09 509.193 110.485C498.892 110.112 488.635 111.932 479.101 115.823C469.567 119.714 460.976 125.587 453.899 133.052C446.821 140.517 441.418 149.403 438.05 159.121C434.681 168.838 433.423 179.163 434.361 189.412C435.298 199.66 438.408 209.597 443.485 218.562C448.561 227.527 455.489 235.315 463.806 241.408C472.124 247.502 481.641 251.762 491.727 253.905C501.812 256.049 512.234 256.026 522.301 253.84C527.055 263.004 533.709 271.055 541.821 277.455C549.933 283.855 559.315 288.457 569.341 290.955C579.368 293.452 589.809 293.787 599.966 291.938C610.124 290.088 619.765 286.096 628.247 280.229C636.728 274.361 643.855 266.753 649.151 257.911C654.447 249.07 657.791 239.198 658.96 228.956C660.129 218.713 659.095 208.335 655.928 198.514C652.762 188.693 647.535 179.654 640.596 172.002L640.626 171.936ZM522.514 111.725C525.742 104.469 530.387 97.9313 536.177 92.4922C541.967 87.0531 548.787 82.8219 556.238 80.0456C563.69 77.2692 571.623 76.0033 579.577 76.3217C587.53 76.64 595.343 78.5362 602.56 81.8998C609.778 85.2633 616.255 90.0267 621.614 95.912C626.972 101.797 631.105 108.687 633.772 116.178C636.438 123.67 637.584 131.613 637.143 139.545C636.702 147.477 634.683 155.239 631.203 162.377L630.935 162.953C622.518 156.521 612.795 152.007 602.45 149.729C592.105 147.452 581.39 147.467 571.061 149.772C563.695 135.468 551.766 124.016 537.161 117.229C532.39 115.017 527.397 113.321 522.266 112.17C522.339 112.016 522.421 111.868 522.514 111.725V111.725ZM560.983 208.331C554.687 221.878 543.516 232.558 529.686 238.253C525.24 224.061 526.258 208.735 532.542 195.277C532.634 195.079 532.726 194.882 532.818 194.684C541.204 201.093 550.891 205.594 561.197 207.87L560.983 208.331ZM551.559 191.36C547.255 189.315 543.213 186.759 539.521 183.747C545.871 175.593 554.235 169.228 563.796 165.275C566.881 175.132 567.352 185.615 565.163 195.697C560.474 194.792 555.908 193.336 551.559 191.36V191.36ZM530.417 174.797C524.748 167.816 520.715 159.659 518.613 150.926C516.51 142.193 516.392 133.104 518.267 124.328C526.724 126.013 534.718 129.507 541.7 134.569C548.681 139.631 554.484 146.141 558.709 153.65C547.675 158.266 537.957 165.529 530.417 174.797V174.797ZM575.986 161.742C588.171 159.493 600.764 161.097 612.008 166.331C616.32 168.345 620.378 170.862 624.099 173.828C618.609 180.864 611.616 186.586 603.626 190.579C595.637 194.572 586.853 196.735 577.913 196.912C580.175 185.215 579.513 173.135 575.986 161.742ZM452.227 157.648C456.976 147.494 464.484 138.88 473.901 132.784C483.317 126.688 494.263 123.354 505.494 123.163C503.375 134.226 503.855 145.634 506.898 156.492C509.94 167.349 515.462 177.359 523.029 185.736C522.385 187.118 521.585 188.448 520.925 189.863C513.326 206.129 512.077 224.65 517.423 241.812C506.607 243.789 495.449 242.755 485.172 238.822C474.895 234.888 465.895 228.209 459.159 219.514C452.423 210.82 448.211 200.447 446.986 189.533C445.76 178.619 447.568 167.585 452.211 157.64L452.227 157.648ZM561.597 274.717C550.246 269.44 540.841 260.732 534.714 249.83C551.407 242.94 564.899 230.056 572.533 213.714C573.162 212.364 573.791 211.015 574.28 209.62C585.523 210.011 596.699 207.803 606.935 203.167C617.171 198.532 626.19 191.595 633.288 182.898C641.861 193.408 646.615 206.504 646.771 220.043C646.927 233.582 642.478 246.765 634.149 257.434C625.821 268.104 614.107 275.63 600.922 278.781C587.738 281.933 573.863 280.523 561.567 274.783L561.597 274.717Z" fill="#3F3C3C"/>
</g>
<defs>
<clipPath id="clip0_1_58">
<rect width="319.97" height="259.42" fill="white" transform="translate(181 316)"/>
</clipPath>
<clipPath id="clip1_1_58">
<rect width="330.08" height="276.08" fill="white" transform="translate(0 78)"/>
</clipPath>
<clipPath id="clip2_1_58">
<rect width="267.113" height="249.474" fill="white" transform="translate(493.38) rotate(24.9868)"/>
</clipPath>
</defs>
</svg>
