<?xml version="1.0" encoding="UTF-8"?><svg id="a" xmlns="http://www.w3.org/2000/svg" viewBox="0 0 150 150"><defs><style>.b{fill:#1d1d1b;}</style></defs><path class="b" d="M125.76,40.78v-9.31c0-3.56-3.29-5.46-6.96-5.46h-19.08c-4.99,0-9.53-2.01-9.53-7.67v-7.8h-12.37v9.06c0,15.17-15.39,26.51-30.81,26.51h-6.3v12.37h7.89c6.16,0,10.8,4.54,10.8,10.65s-4.98,10.69-10.89,10.69-10.89-4.85-10.89-10.77v-1.55c0-3.42-2.44-5.94-5.86-5.94h-11.03c-4.74,0-7.85-4.59-7.85-9.43v-6.04H.5v6.04c0,9.93,6.42,18.31,15.56,20.82l2.49,28.81c.13,1.43,.68,2.77,1.69,3.79l34.72,32.52c1.16,1.17,2.7,2.36,4.36,2.36h34c1.65,0,3.23-1.18,4.39-2.36l34.76-32.26c1.02-1.03,1.64-2.89,1.77-4.33l1.08-11.4s15.2-.11,15.2-18.22v-11.86h-5.36c-22.48,0-19.38-19.25-19.38-19.25Zm-12.68-2.23h0s0-.02,0,0Zm-12.07,19.94h2.75c5.91,0,10.73,4.74,10.73,10.65s-4.81,10.69-10.73,10.69-10.73-4.71-10.73-10.62c0-3.42-2.77-6.08-6.19-6.08h-15.92c-.94-3.09-2.67-6.94-5-9.54,8.69-4.21,15.77-11.12,19.93-19.76,3.83,2.98,8.63,4.57,13.85,4.57h13.42c0,6.19-5.19,7.73-9.37,7.73h-2.75v12.37Zm-30.42,40.97s7.1,6.89,15.73-1.74l-10.23-10.23,7.39-7.39c3.92,7.18,11.53,12.07,20.28,12.07s15.83-4.57,19.86-11.35l-1.53,18.16-31.37,29.1h-28.84l-31.39-29.11-1.6-17.7c4.05,6.69,11.4,11.04,19.77,11.04,4.22,0,8.17-1.22,11.57-3.21l10.35,10.36Z"/></svg>